<svg width="25" height="26" viewBox="0 0 25 26" fill="none" xmlns="http://www.w3.org/2000/svg">
<rect x="0.5" y="0.5" width="24" height="25" rx="12" stroke="#28293D"/>
<path d="M18.125 8.7375C16.0438 8.53125 13.95 8.425 11.8625 8.425C10.625 8.425 9.3875 8.4875 8.15 8.6125L6.875 8.7375M10.3125 8.10625L10.45 7.2875C10.55 6.69375 10.625 6.25 11.6812 6.25H13.3188C14.375 6.25 14.4562 6.71875 14.55 7.29375L14.6875 8.10625M16.7813 10.7125L16.375 17.0063C16.3063 17.9875 16.25 18.75 14.5063 18.75H10.4937C8.75 18.75 8.69375 17.9875 8.625 17.0063L8.21875 10.7125M11.4562 15.3125H13.5375M10.9375 12.8125H14.0625" stroke="#28293D" stroke-width="1.2" stroke-linecap="round" stroke-linejoin="round"/>
</svg>
