<svg width="24" height="24" viewBox="0 0 24 24" fill="none" xmlns="http://www.w3.org/2000/svg">
<path d="M4.16989 15.3L8.69989 19.83C9.59591 20.7234 10.8096 21.2251 12.0749 21.2251C13.3402 21.2251 14.5539 20.7234 15.4499 19.83L19.8399 15.44C20.7333 14.544 21.235 13.3303 21.235 12.065C21.235 10.7997 20.7333 9.58602 19.8399 8.69L15.2999 4.17001C14.8305 3.69931 14.2675 3.33238 13.6474 3.09294C13.0273 2.85351 12.3638 2.74689 11.6999 2.78001L6.69989 3.02001C4.69989 3.11001 3.10989 4.70001 3.00989 6.69001L2.76989 11.69C2.70989 13.04 3.21989 14.35 4.16989 15.3Z" stroke="black" stroke-width="1.5" stroke-linecap="round" stroke-linejoin="round"/>
<path d="M9.5 12C10.163 12 10.7989 11.7366 11.2678 11.2678C11.7366 10.7989 12 10.163 12 9.5C12 8.83696 11.7366 8.20107 11.2678 7.73223C10.7989 7.26339 10.163 7 9.5 7C8.83696 7 8.20107 7.26339 7.73223 7.73223C7.26339 8.20107 7 8.83696 7 9.5C7 10.163 7.26339 10.7989 7.73223 11.2678C8.20107 11.7366 8.83696 12 9.5 12Z" stroke="black" stroke-width="1.5" stroke-linecap="round"/>
</svg>
