<svg width="11" height="11" viewBox="0 0 11 11" fill="none" xmlns="http://www.w3.org/2000/svg">
<path d="M9.37753 5.0767H6.14712V1.74337C6.14712 1.52235 6.06203 1.31039 5.91058 1.15411C5.75912 0.997832 5.55371 0.910034 5.33952 0.910034C5.12533 0.910034 4.91991 0.997832 4.76845 1.15411C4.617 1.31039 4.53191 1.52235 4.53191 1.74337V5.0767H1.3015C1.08731 5.0767 0.881893 5.1645 0.730438 5.32078C0.578983 5.47706 0.493896 5.68902 0.493896 5.91003C0.493896 6.13105 0.578983 6.34301 0.730438 6.49929C0.881893 6.65557 1.08731 6.74337 1.3015 6.74337H4.53191V10.0767C4.53191 10.2977 4.617 10.5097 4.76845 10.666C4.91991 10.8222 5.12533 10.91 5.33952 10.91C5.55371 10.91 5.75912 10.8222 5.91058 10.666C6.06203 10.5097 6.14712 10.2977 6.14712 10.0767V6.74337H9.37753C9.59172 6.74337 9.79714 6.65557 9.94859 6.49929C10.1 6.34301 10.1851 6.13105 10.1851 5.91003C10.1851 5.68902 10.1 5.47706 9.94859 5.32078C9.79714 5.1645 9.59172 5.0767 9.37753 5.0767Z" fill="white"/>
</svg>
