<svg width="108" height="31" viewBox="0 0 108 31" fill="none" xmlns="http://www.w3.org/2000/svg">
<path d="M18.5837 29.3445C23.7446 28.4361 28.0072 27.6845 28.0562 27.6741L28.1452 27.6553L23.2728 21.881C20.593 18.7051 18.4004 16.0943 18.4004 16.0793C18.4004 16.0508 23.4316 2.24675 23.4598 2.19764C23.4693 2.18122 26.8932 8.07078 31.7595 16.4743C36.3155 24.3419 40.0717 30.8287 40.1066 30.8895L40.1701 31L24.6851 30.998L9.20019 30.996L18.5837 29.3445V29.3445ZM77.9667 27.948C75.6096 27.7974 74.2387 26.4601 73.8754 23.9571C73.7788 23.2912 73.7784 23.2739 73.7685 18.9512L73.7589 14.7675H74.8021H75.8453L75.8535 18.8142C75.8609 22.4614 75.8656 22.889 75.9006 23.1456C76.0426 24.1869 76.3254 24.8871 76.8068 25.3897C77.1921 25.7919 77.6431 26.0275 78.2675 26.1524C78.562 26.2114 79.4 26.2115 79.6685 26.1527C80.3015 26.0139 80.8088 25.7395 81.2564 25.2937C81.7664 24.7857 82.1438 24.0649 82.3264 23.2498L82.3879 22.9751L82.3948 18.8942L82.4016 14.8132H83.4667H84.5317V21.2286V27.644H83.4777H82.4236V26.6261C82.4236 25.9345 82.416 25.6108 82.3999 25.6161C82.3868 25.6205 82.3327 25.703 82.2796 25.7995C81.9163 26.4595 81.3111 27.0631 80.648 27.4267C79.8531 27.8626 79.0559 28.0176 77.9667 27.948V27.948ZM101.892 27.9376C101.06 27.8753 100.183 27.5903 99.4674 27.149C97.9581 26.2188 97.065 24.6855 96.8036 22.5755C96.7131 21.8454 96.7022 20.8646 96.7777 20.2442C96.9464 18.8579 97.4932 17.497 98.2718 16.5254C98.4713 16.2764 98.9241 15.8252 99.1741 15.6264C99.8491 15.0894 100.639 14.7139 101.477 14.5312C101.965 14.4247 102.826 14.3748 103.345 14.4227C104.648 14.5431 105.843 15.1546 106.655 16.1171C107.48 17.095 107.934 18.4615 107.991 20.1441C108.001 20.4078 108.003 20.8701 107.996 21.1715L107.985 21.7194L103.419 21.7251L98.8533 21.7309V21.9339C98.8533 22.5519 99.0041 23.2557 99.2648 23.8546C99.4896 24.371 99.8766 24.9349 100.193 25.2078C100.843 25.7674 101.638 26.1023 102.508 26.1829C102.831 26.2128 103.653 26.1813 104.021 26.125C105.069 25.9644 106.067 25.5545 106.872 24.953C106.967 24.8822 107.057 24.8161 107.073 24.8061C107.097 24.7914 107.102 24.9763 107.102 25.7535L107.101 26.7193L106.885 26.8522C105.974 27.4136 104.931 27.774 103.826 27.9089C103.496 27.9492 102.286 27.9671 101.892 27.9376L101.892 27.9376ZM105.865 19.7926C105.865 18.7575 105.427 17.6076 104.808 17.0154C104.366 16.5929 103.831 16.3346 103.196 16.2366C102.895 16.1902 102.261 16.208 101.944 16.2718C101.274 16.4067 100.72 16.7002 100.237 17.1761C99.7281 17.677 99.3467 18.2853 99.1068 18.9784C99.0205 19.2276 98.9196 19.6368 98.8883 19.8644L98.8734 19.9729H102.369H105.865V19.7926ZM43.932 27.6154C43.9373 27.5997 45.4877 23.5416 47.3773 18.5974L50.813 9.60794L51.9169 9.60787L53.0208 9.6078L53.1123 9.84182C53.3922 10.5569 59.9902 27.6244 59.9902 27.6333C59.9902 27.6391 59.4618 27.6438 58.8159 27.6437L57.6415 27.6435L56.6906 25.1209L55.7396 22.5984L51.9106 22.5983L48.0816 22.5983L48.0484 22.6839C48.0301 22.731 47.6238 23.8661 47.1455 25.2063L46.2759 27.6431L45.0991 27.6435C44.1676 27.6438 43.9243 27.6379 43.932 27.6153V27.6154ZM55.0407 20.6733C55.0407 20.6693 54.4008 18.9408 53.6186 16.8321C52.1553 12.8871 52.0734 12.6497 51.9578 12.0164C51.9036 11.7194 51.8762 11.7112 51.844 11.9822C51.821 12.1759 51.7213 12.6093 51.6444 12.8497C51.6062 12.969 50.9473 14.771 50.18 16.8541C49.4128 18.9372 48.785 20.6503 48.785 20.6611C48.785 20.6718 50.1926 20.6806 51.9129 20.6806C53.6332 20.6806 55.0407 20.6773 55.0407 20.6733V20.6733ZM60.7006 27.3154V26.9868L64.5154 21.7618L68.3303 16.5369L64.8763 16.5254L61.4224 16.514L61.4164 15.6408L61.4104 14.7675H66.4061H71.4017V15.0624V15.3574L67.5864 20.6109C65.488 23.5003 63.7712 25.8692 63.7712 25.8752C63.7712 25.8811 65.4674 25.886 67.5406 25.886H71.31V26.7649V27.6439H66.0053H60.7006V27.3154ZM88.6945 27.6287C88.6861 27.6203 88.6792 24.7231 88.6792 21.1905V14.7675H89.7219H90.7645V16.0917C90.7645 16.82 90.7734 17.4158 90.7842 17.4158C90.7951 17.4158 90.8458 17.2966 90.897 17.1509C91.1314 16.4832 91.5379 15.8594 92.0617 15.3635C92.5335 14.9168 93.0727 14.6497 93.709 14.5475C93.8877 14.5188 94.039 14.5133 94.3964 14.5226C94.8454 14.5342 95.0801 14.5669 95.3531 14.6558L95.439 14.6838V15.7621V16.8403L95.1927 16.7175C94.7576 16.5005 94.3282 16.4146 93.8121 16.4413C93.4762 16.4587 93.2557 16.5017 92.9872 16.6021C92.4346 16.8087 91.9865 17.1734 91.6733 17.6712C91.2199 18.3918 90.8966 19.3181 90.8012 20.1695C90.7841 20.3223 90.774 21.5666 90.77 24.0196L90.7641 27.6439H89.7369C89.172 27.6439 88.7029 27.6371 88.6945 27.6287ZM0 27.5836C0 27.5755 2.29586 23.6046 5.10192 18.7595L10.2038 9.95024L16.1495 4.97889C19.4197 2.24465 22.104 0.00419835 22.1148 0.000112313C22.1255 -0.00397292 22.0825 0.103901 22.0192 0.239833C21.9558 0.375765 19.0506 6.58445 15.563 14.0369L9.22198 27.5868L4.61099 27.5926C2.07495 27.5958 0 27.5917 0 27.5836V27.5836Z" fill="#0089D6"/>
</svg>
