<svg width="22" height="22" viewBox="0 0 22 22" fill="none" xmlns="http://www.w3.org/2000/svg">
<path d="M18.2838 2.70472H16.3581V1.43615C16.3581 1.26742 16.291 1.10561 16.1717 0.986297C16.0524 0.866988 15.8906 0.799961 15.7219 0.799961C15.5531 0.799961 15.3913 0.866988 15.272 0.986297C15.1527 1.10561 15.0857 1.26742 15.0857 1.43615V2.70472H6.83425V1.43615C6.83425 1.26742 6.76722 1.10561 6.64791 0.986297C6.5286 0.866988 6.36678 0.799961 6.19806 0.799961C6.02933 0.799961 5.86751 0.866988 5.7482 0.986297C5.62889 1.10561 5.56187 1.26742 5.56187 1.43615V2.70472H3.63615C2.88395 2.70472 2.16255 3.00354 1.63066 3.53542C1.09877 4.06731 0.799961 4.78871 0.799961 5.54091V18.2838C0.799961 19.036 1.09877 19.7574 1.63066 20.2893C2.16255 20.8211 2.88395 21.12 3.63615 21.12H18.2838C19.036 21.12 19.7574 20.8211 20.2893 20.2893C20.8211 19.7574 21.12 19.036 21.12 18.2838V5.54091C21.12 4.78871 20.8211 4.06731 20.2893 3.53542C19.7574 3.00354 19.036 2.70472 18.2838 2.70472ZM3.63615 3.9771H18.2838C18.6985 3.9771 19.0963 4.14186 19.3896 4.43513C19.6828 4.7284 19.8476 5.12616 19.8476 5.54091V6.51425H2.07234V5.54091C2.07234 5.12616 2.2371 4.7284 2.53037 4.43513C2.82364 4.14186 3.2214 3.9771 3.63615 3.9771ZM18.2838 19.8476H3.63615C3.2214 19.8476 2.82364 19.6828 2.53037 19.3896C2.2371 19.0963 2.07234 18.6985 2.07234 18.2838V7.78663H19.8476V18.2838C19.8476 18.6985 19.6828 19.0963 19.3896 19.3896C19.0963 19.6828 18.6985 19.8476 18.2838 19.8476Z" fill="#1A2128" stroke="#1A2128" stroke-width="0.32"/>
</svg>
