<svg width="34" height="28" viewBox="0 0 34 28" fill="none" xmlns="http://www.w3.org/2000/svg">
<path d="M19.0001 27.3332C17.6112 27.3332 16.4306 26.8471 15.4584 25.8748C14.4862 24.9026 14.0001 23.7221 14.0001 22.3332C14.0001 20.9998 14.4584 19.8543 15.3751 18.8965C16.2917 17.9376 17.4167 17.4304 18.7501 17.3748C19.2223 16.3748 19.924 15.5621 20.8551 14.9365C21.7851 14.3121 22.8334 13.9998 24.0001 13.9998C25.4723 13.9998 26.7434 14.4793 27.8134 15.4382C28.8823 16.3959 29.5279 17.5832 29.7501 18.9998C30.9167 18.9998 31.9167 19.4026 32.7501 20.2082C33.5834 21.0137 34.0001 21.9859 34.0001 23.1248C34.0001 24.2915 33.5973 25.2843 32.7917 26.1032C31.9862 26.9232 31.0001 27.3332 29.8334 27.3332H19.0001ZM2.33341 27.3332C1.86119 27.3332 1.46508 27.1732 1.14508 26.8532C0.826193 26.5343 0.666748 26.1387 0.666748 25.6665C0.666748 25.1943 0.826193 24.7987 1.14508 24.4798C1.46508 24.1598 1.86119 23.9998 2.33341 23.9998H5.20841C3.79175 22.7776 2.68064 21.3054 1.87508 19.5832C1.06953 17.8609 0.666748 15.9998 0.666748 13.9998C0.666748 11.3609 1.35453 8.97928 2.73008 6.85484C4.10453 4.72928 5.90286 3.12484 8.12508 2.0415C8.76397 1.73595 9.3473 1.73595 9.87508 2.0415C10.4029 2.34706 10.6667 2.86095 10.6667 3.58317C10.6667 3.9165 10.5695 4.20095 10.3751 4.4365C10.1806 4.67317 9.94452 4.86095 9.66675 4.99984C8.00008 5.80539 6.63897 7.0065 5.58341 8.60317C4.52786 10.2009 4.00008 11.9998 4.00008 13.9998C4.00008 15.4998 4.29841 16.8821 4.89508 18.1465C5.49286 19.4098 6.30564 20.4998 7.33341 21.4165V18.9998C7.33341 18.5276 7.49341 18.1315 7.81341 17.8115C8.1323 17.4926 8.52786 17.3332 9.00008 17.3332C9.4723 17.3332 9.86841 17.4926 10.1884 17.8115C10.5073 18.1315 10.6667 18.5276 10.6667 18.9998V25.6665C10.6667 26.1387 10.5073 26.5343 10.1884 26.8532C9.86841 27.1732 9.4723 27.3332 9.00008 27.3332H2.33341ZM23.8334 12.3332C23.639 11.1943 23.264 10.1387 22.7084 9.1665C22.1529 8.19428 21.4723 7.33317 20.6667 6.58317V8.99984C20.6667 9.47206 20.5073 9.86761 20.1884 10.1865C19.8684 10.5065 19.4723 10.6665 19.0001 10.6665C18.5279 10.6665 18.1323 10.5065 17.8134 10.1865C17.4934 9.86761 17.3334 9.47206 17.3334 8.99984V2.33317C17.3334 1.86095 17.4934 1.46484 17.8134 1.14484C18.1323 0.825949 18.5279 0.666504 19.0001 0.666504H25.6667C26.139 0.666504 26.5345 0.825949 26.8534 1.14484C27.1734 1.46484 27.3334 1.86095 27.3334 2.33317C27.3334 2.80539 27.1734 3.2015 26.8534 3.5215C26.5345 3.84039 26.139 3.99984 25.6667 3.99984H22.7917C23.9862 5.05539 24.9656 6.2915 25.7301 7.70817C26.4934 9.12484 26.9862 10.6665 27.2084 12.3332H23.8334Z" fill="#63FFFE"/>
</svg>
