<svg width="17" height="16" viewBox="0 0 17 16" fill="none" xmlns="http://www.w3.org/2000/svg">
<g clip-path="url(#clip0_72_1702)">
<path d="M1.39036 6.20834C1.86442 4.62512 2.94411 3.27075 4.43036 2.3949C5.49817 1.76577 6.72473 1.41531 7.97754 1.38132C9.03504 1.35319 10.0904 1.54864 11.0557 1.94979C11.016 2.08781 10.9947 2.23285 10.9947 2.38259C10.9947 3.30357 11.7938 4.05284 12.776 4.05284C13.7582 4.05284 14.5572 3.30357 14.5572 2.38259C14.5572 1.46161 13.7582 0.712342 12.776 0.712342C12.2929 0.712342 11.8544 0.893725 11.5332 1.18763C10.4138 0.705895 9.18411 0.47001 7.95067 0.502828C6.53036 0.541215 5.14067 0.937972 3.93161 1.65061C2.24786 2.64309 1.02504 4.17708 0.487857 5.97069C-0.0455805 7.75141 0.137232 9.6426 1.00223 11.2961L1.84379 10.9091C1.08036 9.45008 0.91942 7.78071 1.39036 6.20834ZM12.7757 1.59142C13.241 1.59142 13.6194 1.94627 13.6194 2.38259C13.6194 2.81891 13.241 3.17376 12.7757 3.17376C12.3104 3.17376 11.9319 2.81891 11.9319 2.38259C11.9319 1.94627 12.3104 1.59142 12.7757 1.59142Z" fill="#161F26"/>
<path d="M15.1508 4.31024L14.3351 4.74333C15.2308 6.22634 15.4795 7.95607 15.0361 9.61343C14.5911 11.2758 13.4936 12.694 11.9451 13.6065C10.7958 14.284 9.49607 14.6236 8.1942 14.6236C7.08764 14.6236 5.97951 14.378 4.96107 13.8857C5.02107 13.7187 5.0542 13.54 5.0542 13.3542C5.0542 12.4332 4.25514 11.6839 3.27295 11.6839C2.29076 11.6839 1.4917 12.4332 1.4917 13.3542C1.4917 14.2752 2.29076 15.0244 3.27295 15.0244C3.71639 15.0244 4.12232 14.8712 4.43451 14.6189C5.59232 15.1964 6.88701 15.5003 8.20139 15.5003C8.21639 15.5003 8.23139 15.5003 8.2467 15.5003C9.73014 15.4924 11.1817 15.0951 12.4442 14.3508C14.1979 13.3173 15.4414 11.7109 15.9454 9.82763C16.4479 7.95021 16.1658 5.99104 15.1511 4.31053L15.1508 4.31024ZM3.27264 14.1454C2.80732 14.1454 2.42889 13.7905 2.42889 13.3542C2.42889 12.9179 2.80732 12.563 3.27264 12.563C3.73795 12.563 4.11639 12.9179 4.11639 13.3542C4.11639 13.7905 3.73795 14.1454 3.27264 14.1454Z" fill="#161F26"/>
<path d="M11.2745 6.99256C11.092 6.37281 10.532 5.89811 9.84231 5.80083C9.75481 5.40729 9.54543 5.04423 9.23168 4.75091C8.80887 4.35591 8.25075 4.13849 7.66012 4.13849C6.502 4.13849 5.54575 4.96482 5.42668 6.02206C4.17512 6.14249 3.19543 7.13673 3.19543 8.34165C3.19543 9.62745 4.31106 10.6736 5.68231 10.6736H11.2167C11.7439 10.6736 12.2389 10.4802 12.6104 10.1294C12.982 9.77865 13.1842 9.31304 13.1804 8.81841C13.1726 7.83472 12.3248 7.03007 11.2748 6.99256H11.2745ZM11.9451 9.51024C11.7511 9.69368 11.4923 9.79448 11.217 9.79448H5.68231C4.82793 9.79448 4.13293 9.14279 4.13293 8.34165C4.13293 7.54052 4.82793 6.88883 5.68231 6.88883H6.35168V6.24447C6.35168 5.56787 6.93856 5.01757 7.66012 5.01757C8.38168 5.01757 8.95106 5.56992 8.95106 6.22366V6.6676L9.58168 6.66174C10.0332 6.66261 10.4001 7.00751 10.4001 7.43093V7.87047H11.1979C11.7698 7.87047 12.2386 8.29887 12.2429 8.82515C12.2451 9.08359 12.1392 9.32681 11.9451 9.51024Z" fill="#161F26"/>
</g>
<defs>
<clipPath id="clip0_72_1702">
<rect width="16" height="15" fill="white" transform="translate(0.188232 0.5)"/>
</clipPath>
</defs>
</svg>
