<svg width="14" height="14" viewBox="0 0 14 14" fill="none" xmlns="http://www.w3.org/2000/svg">
<path fill-rule="evenodd" clip-rule="evenodd" d="M12.625 0.875C13.1082 0.875 13.5 1.26675 13.5 1.75L13.5 12.25C13.5 12.7333 13.1082 13.125 12.625 13.125C12.1418 13.125 11.75 12.7333 11.75 12.25L11.75 1.75C11.75 1.26675 12.1418 0.875 12.625 0.875ZM6.63128 3.75628C6.97299 3.41457 7.52701 3.41457 7.86872 3.75628L10.4937 6.38128C10.6578 6.54538 10.75 6.76794 10.75 7C10.75 7.23206 10.6578 7.45462 10.4937 7.61872L7.86872 10.2437C7.52701 10.5854 6.97299 10.5854 6.63128 10.2437C6.28957 9.90201 6.28957 9.34799 6.63128 9.00628L7.76256 7.875L1.125 7.875C0.641751 7.875 0.25 7.48325 0.25 7C0.25 6.51675 0.641751 6.125 1.125 6.125L7.76256 6.125L6.63128 4.99372C6.28957 4.65201 6.28957 4.09799 6.63128 3.75628Z" fill="#161F26"/>
</svg>
