<svg width="70" height="70" viewBox="0 0 70 70" fill="none" xmlns="http://www.w3.org/2000/svg">
<path d="M51.4533 20.1436C51.2199 19.9712 50.9277 19.8987 50.6408 19.9419C50.3539 19.9851 50.096 20.1404 49.9237 20.3738C49.7514 20.6072 49.6788 20.8994 49.722 21.1863C49.7652 21.4731 49.9205 21.7311 50.1539 21.9034C51.8254 23.1379 52.993 24.9361 53.4406 26.9653C53.4944 27.2084 53.6295 27.4258 53.8236 27.5817C54.0177 27.7376 54.2592 27.8227 54.5081 27.8228C54.5879 27.8229 54.6675 27.8145 54.7455 27.7976C55.0285 27.7349 55.2751 27.5623 55.431 27.3178C55.5868 27.0733 55.6393 26.777 55.5767 26.4939C55.0149 23.9483 53.5501 21.6924 51.4533 20.1436Z" fill="#FFC225"/>
<path d="M59.978 28.0131H60.0874C60.2303 27.9994 60.3692 27.9577 60.4961 27.8903C60.623 27.8229 60.7353 27.7312 60.8267 27.6204C60.9181 27.5095 60.9868 27.3818 61.0288 27.2445C61.0709 27.1071 61.0855 26.9628 61.0717 26.8198C60.8316 24.3805 60.0094 22.0345 58.6743 19.979C57.3391 17.9234 55.53 16.2185 53.3991 15.0073C53.1467 14.864 52.8477 14.8268 52.568 14.904C52.2882 14.9811 52.0505 15.1662 51.9072 15.4186C51.7639 15.6709 51.7267 15.9699 51.8038 16.2497C51.881 16.5295 52.0661 16.7672 52.3184 16.9105C54.145 17.9485 55.6957 19.4099 56.8401 21.1718C57.9845 22.9336 58.6893 24.9445 58.8952 27.0353C58.9237 27.303 59.0499 27.5507 59.2497 27.7311C59.4495 27.9115 59.7088 28.0119 59.978 28.0131Z" fill="#FFC225"/>
<path d="M65.3297 28.2024H65.3647C65.6546 28.1935 65.9292 28.0698 66.1279 27.8586C66.3267 27.6473 66.4334 27.3657 66.4245 27.0758C66.3218 23.4855 65.2328 19.9928 63.2767 16.9804C61.3206 13.9681 58.573 11.5523 55.335 9.99798C55.2051 9.92958 55.0627 9.88805 54.9164 9.87585C54.77 9.86365 54.6227 9.88104 54.4833 9.92699C54.3438 9.97293 54.215 10.0465 54.1046 10.1433C53.9942 10.24 53.9044 10.3581 53.8405 10.4903C53.7767 10.6225 53.7401 10.7663 53.733 10.9129C53.7259 11.0596 53.7484 11.2062 53.7992 11.344C53.85 11.4817 53.928 11.6079 54.0285 11.7149C54.1291 11.8219 54.2502 11.9075 54.3845 11.9667C57.2614 13.3481 59.7026 15.4947 61.4405 18.1713C63.1783 20.848 64.1459 23.9514 64.237 27.1414C64.2456 27.4256 64.3644 27.6953 64.5684 27.8933C64.7723 28.0914 65.0454 28.2022 65.3297 28.2024Z" fill="#FFC225"/>
<path d="M67.0928 56.338L39.7545 8.2567C39.2771 7.41664 38.5856 6.71806 37.7504 6.2321C36.9153 5.74613 35.9663 5.49011 35 5.49011C34.0337 5.49011 33.0847 5.74613 32.2496 6.2321C31.4144 6.71806 30.7229 7.41664 30.2455 8.2567L2.90719 56.338C2.43429 57.1698 2.18795 58.1112 2.19276 59.0681C2.19757 60.025 2.45336 60.9638 2.9346 61.7909C3.41583 62.618 4.10566 63.3043 4.93517 63.7814C5.76467 64.2584 6.70483 64.5094 7.66172 64.5094H62.3438C63.3006 64.5094 64.2408 64.2584 65.0703 63.7814C65.8998 63.3043 66.5896 62.618 67.0709 61.7909C67.5521 60.9638 67.8079 60.025 67.8127 59.0681C67.8175 58.1112 67.5712 57.1698 67.0983 56.338H67.0928ZM65.1744 60.6911C64.8886 61.1887 64.4762 61.6017 63.979 61.8882C63.4818 62.1746 62.9176 62.3243 62.3438 62.3219H7.66172C7.0883 62.321 6.52511 62.1699 6.02828 61.8836C5.53146 61.5972 5.11834 61.1857 4.8301 60.69C4.54185 60.1943 4.38855 59.6317 4.38546 59.0583C4.38237 58.4849 4.52961 57.9206 4.8125 57.4219L32.1563 9.34061C32.4427 8.83667 32.8576 8.41763 33.3587 8.12612C33.8597 7.83461 34.4291 7.68104 35.0088 7.68104C35.5884 7.68104 36.1578 7.83461 36.6588 8.12612C37.1599 8.41763 37.5748 8.83667 37.8613 9.34061L65.205 57.4219C65.4894 57.9208 65.6363 58.4863 65.6309 59.0606C65.6256 59.6349 65.468 60.1975 65.1744 60.6911Z" fill="#FFC225"/>
<path d="M35 17.5C34.248 17.5001 33.5042 17.6567 32.816 17.9599C32.1277 18.263 31.5101 18.7061 31.0024 19.2609C30.4948 19.8157 30.1081 20.4701 29.8671 21.1824C29.626 21.8948 29.5359 22.6495 29.6023 23.3986L31.3294 44.7716C31.4132 45.6891 31.8373 46.5421 32.5184 47.1627C33.1994 47.7833 34.0879 48.1266 35.0093 48.1251C35.9307 48.1236 36.8181 47.7773 37.4971 47.1545C38.1761 46.5317 38.5974 45.6773 38.6783 44.7595L40.3998 23.4062C40.4676 22.6563 40.3784 21.9005 40.1378 21.187C39.8972 20.4735 39.5105 19.818 39.0024 19.2623C38.4943 18.7066 37.876 18.2629 37.1869 17.9594C36.4978 17.656 35.753 17.4995 35 17.5ZM36.4984 44.5725C36.4637 44.9439 36.292 45.2891 36.0167 45.5409C35.7414 45.7926 35.3823 45.9329 35.0093 45.9344C34.6362 45.9359 34.276 45.7985 33.9987 45.549C33.7214 45.2994 33.5469 44.9557 33.5092 44.5845L31.7822 23.2127C31.7416 22.7647 31.7948 22.3133 31.9385 21.8871C32.0822 21.4609 32.3133 21.0694 32.6169 20.7375C32.9204 20.4057 33.2899 20.1408 33.7016 19.9598C34.1134 19.7788 34.5584 19.6857 35.0081 19.6863C35.4579 19.687 35.9026 19.7815 36.3137 19.9638C36.7249 20.146 37.0936 20.412 37.3961 20.7448C37.6987 21.0776 37.9286 21.4698 38.071 21.8964C38.2134 22.3231 38.2653 22.7747 38.2233 23.2225L36.4984 44.5725Z" fill="#FFC225"/>
<path d="M35 50.3125C34.1347 50.3125 33.2888 50.5691 32.5694 51.0498C31.8499 51.5306 31.2892 52.2138 30.958 53.0133C30.6269 53.8127 30.5403 54.6924 30.7091 55.541C30.8779 56.3897 31.2946 57.1692 31.9064 57.7811C32.5183 58.3929 33.2978 58.8096 34.1465 58.9784C34.9951 59.1472 35.8748 59.0606 36.6742 58.7295C37.4737 58.3983 38.157 57.8376 38.6377 57.1181C39.1184 56.3987 39.375 55.5528 39.375 54.6875C39.375 53.5272 38.9141 52.4144 38.0936 51.5939C37.2731 50.7734 36.1603 50.3125 35 50.3125ZM35 56.875C34.5674 56.875 34.1444 56.7467 33.7847 56.5063C33.425 56.266 33.1446 55.9243 32.979 55.5246C32.8134 55.1249 32.7701 54.6851 32.8545 54.2607C32.9389 53.8364 33.1473 53.4466 33.4532 53.1407C33.7591 52.8348 34.1489 52.6264 34.5732 52.542C34.9976 52.4576 35.4374 52.5009 35.8371 52.6665C36.2368 52.8321 36.5785 53.1125 36.8188 53.4722C37.0592 53.8319 37.1875 54.2549 37.1875 54.6875C37.1875 55.2677 36.957 55.8241 36.5468 56.2343C36.1366 56.6445 35.5802 56.875 35 56.875Z" fill="#FFC225"/>
</svg>
