<svg width="17" height="17" viewBox="0 0 17 17" fill="none" xmlns="http://www.w3.org/2000/svg">
<g clip-path="url(#clip0_99_198)">
<path d="M8.85092 13.7983C8.51361 13.7983 8.24023 13.525 8.24023 13.1877V3.49809C8.24023 3.16078 8.51361 2.8874 8.85092 2.8874C9.18823 2.8874 9.46161 3.16078 9.46161 3.49809V13.1877C9.46161 13.525 9.18823 13.7983 8.85092 13.7983Z" fill="white"/>
<path d="M12.6467 10.4788L9.26758 13.6341C9.03287 13.8531 8.66871 13.8531 8.43399 13.6341L5.05483 10.4788C4.80833 10.2486 4.7949 9.86225 5.02512 9.61575C5.14521 9.48691 5.30827 9.42175 5.47152 9.42175C5.62093 9.42175 5.77055 9.4761 5.88821 9.58603L8.85065 12.3523L11.8131 9.58603C12.06 9.35582 12.4461 9.36925 12.6762 9.61575C12.9062 9.86225 12.8932 10.2486 12.6467 10.4788Z" fill="white"/>
<path d="M14.9577 6.09863H11.7007C11.3634 6.09863 11.09 6.37201 11.09 6.70932C11.09 7.04663 11.3634 7.32001 11.7007 7.32001H14.347V15.6661H3.15106V7.32001H5.79737C6.13469 7.32001 6.40806 7.04663 6.40806 6.70932C6.40806 6.37201 6.13469 6.09863 5.79737 6.09863H2.54038C2.20306 6.09863 1.92969 6.37201 1.92969 6.70932V16.2768C1.92969 16.6141 2.20306 16.8874 2.54038 16.8874H14.9577C15.295 16.8874 15.5684 16.6141 15.5684 16.2768V6.70932C15.5684 6.37204 15.295 6.09863 14.9577 6.09863Z" fill="white"/>
</g>
<defs>
<clipPath id="clip0_99_198">
<rect width="16" height="16" fill="white" transform="translate(0.749023 0.887451)"/>
</clipPath>
</defs>
</svg>
