<svg width="25" height="25" viewBox="0 0 25 25" fill="none" xmlns="http://www.w3.org/2000/svg">
<path d="M22.3143 16.2024C21.0846 16.2024 20.0492 17.0316 19.7321 18.1588H17.1369V15.2954H19.7838C22.6573 15.2954 25 12.9567 25 10.0739C25 7.76756 23.4727 5.73983 21.2982 5.07904C20.6446 2.44882 18.276 0.563618 15.5255 0.563618C14.4577 0.563618 13.4416 0.835709 12.5421 1.36046C11.5907 0.485877 10.3417 0 9.02796 0C6.20632 0 3.90888 2.24799 3.8118 5.04664C1.58556 5.66857 0 7.71573 0 10.0739C0 12.9502 2.33627 15.2954 5.21615 15.2954H7.86306V18.1588H5.26793C4.95082 17.0316 3.90888 16.2024 2.68574 16.2024C1.20373 16.2024 0 17.4074 0 18.8909C0 20.3744 1.20373 21.5794 2.68574 21.5794C3.91535 21.5794 4.95082 20.7502 5.26793 19.623H8.59436C9.00207 19.623 9.32565 19.2926 9.32565 18.8909V15.2954H11.7655V19.7266C10.6394 20.0441 9.81103 21.0871 9.81103 22.3115C9.81103 23.795 11.0148 25 12.4968 25C13.9788 25 15.1825 23.795 15.1825 22.3115C15.1825 21.0806 14.3541 20.0441 13.2281 19.7266V15.2954H15.6679V18.8909C15.6679 19.299 15.9979 19.623 16.3992 19.623H19.7256C20.0427 20.7502 21.0847 21.5794 22.3078 21.5794C23.7898 21.5794 24.9935 20.3744 24.9935 18.8909C24.9935 17.4074 23.7898 16.2024 22.3078 16.2024H22.3143ZM2.68574 20.1153C2.01268 20.1153 1.46259 19.5647 1.46259 18.8909C1.46259 18.2172 2.01268 17.6665 2.68574 17.6665C3.35879 17.6665 3.90888 18.2172 3.90888 18.8909C3.90888 19.5647 3.35879 20.1153 2.68574 20.1153ZM13.7199 22.318C13.7199 22.9917 13.1698 23.5424 12.4968 23.5424C11.8237 23.5424 11.2736 22.9917 11.2736 22.318C11.2736 21.6442 11.8237 21.0935 12.4968 21.0935C13.1698 21.0935 13.7199 21.6442 13.7199 22.318ZM5.20968 13.8313C3.14522 13.8313 1.46259 12.1469 1.46259 10.0803C1.46259 8.22752 2.84106 6.63384 4.66606 6.36823C5.05436 6.30992 5.32617 5.96009 5.28734 5.57787C5.2744 5.46126 5.2744 5.34465 5.2744 5.22804C5.2744 3.16144 6.95703 1.47707 9.02149 1.47707C10.1217 1.47707 11.1636 1.95647 11.8755 2.79217C12.1279 3.0837 12.5615 3.13553 12.8721 2.90878C13.6422 2.33869 14.5612 2.04068 15.5255 2.04068C17.7517 2.04068 19.6091 3.67971 19.9521 5.80461C20.0039 6.10262 20.2304 6.34232 20.5281 6.4071C22.269 6.75693 23.5309 8.30526 23.5309 10.0868C23.5309 12.1534 21.8483 13.8378 19.7838 13.8378H5.21615L5.20968 13.8313ZM22.3143 20.1153C21.6412 20.1153 21.0911 19.5647 21.0911 18.8909C21.0911 18.2172 21.6412 17.6665 22.3143 17.6665C22.9873 17.6665 23.5374 18.2172 23.5374 18.8909C23.5374 19.5647 22.9873 20.1153 22.3143 20.1153Z" fill="#161F26"/>
</svg>
