<svg width="15" height="15" viewBox="0 0 15 15" fill="none" xmlns="http://www.w3.org/2000/svg">
<path d="M14.9739 12.0384L13.5716 4.0791C13.4736 3.52996 13.1107 3.07888 12.5943 2.86642L9.24389 1.49684C9.10007 1.438 8.94971 1.40205 8.79935 1.3857L8.61958 0.359335C8.57708 0.120721 8.34827 -0.0394442 8.10966 0.00304868C7.87105 0.0455416 7.71088 0.27435 7.75337 0.512964L7.93315 1.53933C7.79914 1.6047 7.67166 1.68969 7.55725 1.79102L7.17808 2.13423L7.12252 2.08193C7.00811 1.97733 6.87737 1.89235 6.74008 1.82698L6.97216 0.516232C7.01465 0.277618 6.85449 0.0488103 6.61587 0.00631736C6.37726 -0.0361756 6.14845 0.12399 6.10596 0.362604L5.87388 1.67335C5.72352 1.68969 5.57643 1.72238 5.43587 1.78121L2.05605 3.15079C1.53633 3.35999 1.17024 3.81434 1.07218 4.36348L0.0261998 10.3027C-0.127428 11.1787 0.457666 12.0155 1.33367 12.1691L5.61238 12.9242L5.74313 13.6694C5.88042 14.4506 6.56357 14.9998 7.32844 14.9998C7.41997 14.9998 7.51476 14.9932 7.60955 14.9736L13.6697 13.9048C14.5457 13.7511 15.1308 12.9144 14.9772 12.0384H14.9739ZM13.5128 13.0386L7.45265 14.1074C7.2598 14.1401 7.06695 14.0976 6.90678 13.9865C6.74662 13.8754 6.63875 13.7054 6.60606 13.5125L6.53088 13.0811L7.39055 13.2314C7.48534 13.2478 7.58013 13.2576 7.67492 13.2576C8.00179 13.2576 8.32212 13.1562 8.59669 12.9667C8.94971 12.7182 9.18506 12.3489 9.26024 11.9272L10.3062 5.98474C10.4043 5.4356 10.2147 4.88647 9.80284 4.51057L7.83509 2.7226L8.14888 2.44149C8.28617 2.31728 8.46268 2.25517 8.63919 2.25517C8.73071 2.25517 8.8255 2.27152 8.91376 2.30747L12.2642 3.67705C12.4995 3.77184 12.6629 3.97777 12.7087 4.22946L14.111 12.1887C14.1796 12.5875 13.9148 12.9667 13.5161 13.0386H13.5128ZM0.889133 10.453L1.93838 4.5171C1.98414 4.26542 2.15085 4.05949 2.38619 3.9647L5.71044 2.62127L5.61565 3.1606C5.57316 3.39921 5.73333 3.62802 5.97194 3.67051C5.99809 3.67378 6.02424 3.67705 6.05039 3.67705C6.25958 3.67705 6.4459 3.52669 6.48185 3.31423L6.57665 2.77489L9.21448 5.16757C9.40079 5.33754 9.48905 5.58923 9.44328 5.83765L8.3973 11.7801C8.36462 11.973 8.25675 12.1397 8.09659 12.2541C7.93642 12.3652 7.74357 12.411 7.55072 12.375L1.49057 11.3062C1.09179 11.2375 0.827028 10.8551 0.89567 10.4563L0.889133 10.453Z" fill="#161F26"/>
</svg>
