<svg width="22" height="22" viewBox="0 0 22 22" fill="none" xmlns="http://www.w3.org/2000/svg">
<path d="M19.7389 11C19.7389 15.8264 15.8264 19.7389 11 19.7389C6.17364 19.7389 2.26111 15.8264 2.26111 11C2.26111 6.17364 6.17364 2.26111 11 2.26111C15.8264 2.26111 19.7389 6.17364 19.7389 11ZM11 21.15C16.6057 21.15 21.15 16.6057 21.15 11C21.15 5.39431 16.6057 0.85 11 0.85C5.39431 0.85 0.85 5.39431 0.85 11C0.85 16.6057 5.39431 21.15 11 21.15Z" fill="#1A2128" stroke="#1A2128" stroke-width="0.3"/>
<path d="M10.2943 15.2778V15.4278H10.4443H11.5554H11.7054V15.2778V9.77783V9.62783H11.5554H10.4443H10.2943V9.77783V15.2778Z" fill="#1A2128" stroke="#1A2128" stroke-width="0.3"/>
<path d="M10.9999 7.91776C11.4451 7.91776 11.8054 7.55632 11.8054 7.11171C11.8054 6.66711 11.4451 6.30566 10.9999 6.30566C10.5547 6.30566 10.1943 6.66711 10.1943 7.11171C10.1943 7.55632 10.5547 7.91776 10.9999 7.91776Z" fill="#1A2128" stroke="#1A2128" stroke-width="0.5"/>
</svg>
