<svg width="26" height="40" viewBox="0 0 26 40" fill="none" xmlns="http://www.w3.org/2000/svg">
<g clip-path="url(#clip0_74_19)">
<path d="M23.934 27.419H19.4165V22.5653C23.124 20.4636 25.6232 16.5622 25.6232 12.1112C25.6232 5.43683 20.0142 0.00421143 13.1232 0.00421143C6.23214 0.00421143 0.623169 5.43263 0.623169 12.107C0.623169 16.5622 3.11797 20.4594 6.82986 22.5611V27.4148H2.30803C1.81426 27.4148 1.37248 27.7043 1.18623 28.1447C0.999988 28.5852 1.10827 29.0928 1.4591 29.4242L12.2742 39.6644C12.5081 39.8868 12.8157 40 13.1188 40C13.422 40 13.7295 39.8868 13.9634 39.6644L24.7786 29.4242C25.1294 29.0928 25.2377 28.5852 25.0514 28.1447C24.8652 27.7043 24.4234 27.4148 23.9296 27.4148L23.934 27.419ZM3.04434 12.107C3.04434 6.72472 7.56617 2.34506 13.1232 2.34506C18.6802 2.34506 23.202 6.72472 23.202 12.107C23.202 17.4893 18.6802 21.8689 13.1232 21.8689C7.56617 21.8689 3.04434 17.4893 3.04434 12.107ZM13.1232 37.1893L5.27927 29.764H8.03828C8.70529 29.764 9.2467 29.2397 9.2467 28.5936V23.6225C10.4681 24.0084 11.7675 24.2182 13.1188 24.2182C14.4702 24.2182 15.7739 24.0084 16.991 23.6225V28.5936C16.991 29.2397 17.5324 29.764 18.1994 29.764H20.9584L13.1145 37.1893H13.1232Z" fill="#285DD9"/>
<path d="M13.0062 10.8065C11.7545 10.3576 11.5466 10.064 11.5509 9.56894C11.5596 8.59987 12.5601 8.49919 12.9846 8.50339C13.6126 8.50339 14.6088 8.79285 14.6088 9.54796C14.6088 10.194 15.1502 10.7184 15.8172 10.7184C16.4842 10.7184 17.0256 10.194 17.0256 9.54796C17.0256 7.83218 15.7479 6.72887 14.2536 6.32615V5.47035C14.2536 4.82431 13.7122 4.29993 13.0452 4.29993C12.3782 4.29993 11.8368 4.82431 11.8368 5.47035V6.29259C11.3127 6.42263 10.8363 6.63658 10.4335 6.93443C9.60186 7.55111 9.13841 8.47822 9.12975 9.54377C9.10809 11.9559 11.3257 12.7152 12.3955 13.0802" fill="#285DD9"/>
<path d="M12.3912 13.0844C14.0717 13.6423 14.6997 13.9821 14.6954 14.603C14.6868 15.5637 13.7079 15.6686 13.2704 15.6686C13.2704 15.6686 13.2618 15.6686 13.2574 15.6686C12.6294 15.6686 11.6332 15.3791 11.6332 14.624C11.6332 13.9779 11.0918 13.4536 10.4248 13.4536C9.75778 13.4536 9.21638 13.9779 9.21638 14.624C9.21638 16.3398 10.4941 17.4431 11.9884 17.8458V18.7394C11.9884 19.3854 12.5298 19.9098 13.1968 19.9098C13.8638 19.9098 14.4052 19.3854 14.4052 18.7394V17.8836C14.9293 17.7535 15.4057 17.5396 15.8085 17.2417C16.6401 16.625 17.1036 15.6979 17.1123 14.6324C17.1339 12.1867 14.4702 11.3015 12.9976 10.8107" fill="#285DD9"/>
</g>
<defs>
<clipPath id="clip0_74_19">
<rect width="25" height="40" fill="white" transform="translate(0.623169)"/>
</clipPath>
</defs>
</svg>
