<svg width="36" height="40" viewBox="0 0 36 40" fill="none" xmlns="http://www.w3.org/2000/svg">
<g clip-path="url(#clip0_74_14)">
<path d="M17.9391 0C15.1229 0 12.8327 2.29708 12.8327 5.12175C12.8327 7.94643 15.1229 10.2435 17.9391 10.2435C20.7552 10.2435 23.0454 7.94643 23.0454 5.12175C23.0454 2.29708 20.7552 0 17.9391 0ZM17.9391 7.89773C16.4096 7.89773 15.1714 6.65584 15.1714 5.12175C15.1714 3.58766 16.4096 2.34578 17.9391 2.34578C19.4685 2.34578 20.7067 3.58766 20.7067 5.12175C20.7067 6.65584 19.4685 7.89773 17.9391 7.89773Z" fill="#285DD9"/>
<path d="M7.71017 4.33441C5.33907 4.33441 3.40497 6.27435 3.40497 8.65259C3.40497 11.0308 5.33907 12.9708 7.71017 12.9708C10.0813 12.9708 12.0154 11.0308 12.0154 8.65259C12.0154 6.27435 10.0813 4.33441 7.71017 4.33441ZM7.71017 10.625C6.62578 10.625 5.7437 9.74026 5.7437 8.65259C5.7437 7.56493 6.62578 6.68019 7.71017 6.68019C8.79456 6.68019 9.67664 7.56493 9.67664 8.65259C9.67664 9.74026 8.79456 10.625 7.71017 10.625Z" fill="#285DD9"/>
<path d="M32.0038 13.8961H26.1529C25.4408 12.7679 24.1865 12.013 22.7541 12.013H13.1321C11.6998 12.013 10.4454 12.7679 9.73329 13.8961H3.88242C1.98878 13.8961 0.443115 15.4464 0.443115 17.3458V25.8523L5.40381 26.3799C5.63849 27.1266 5.93791 27.8572 6.30207 28.5552L3.17028 32.4432L7.97722 37.2646L11.8535 34.1234C12.5495 34.4887 13.2697 34.789 14.0223 35.0244L14.5483 40H21.346L21.872 35.0244C22.6165 34.789 23.3448 34.4887 24.0408 34.1234L27.9171 37.2646L32.724 32.4432L29.5922 28.5552C29.9564 27.8572 30.2558 27.1348 30.4905 26.3799L35.4512 25.8523V17.3458C35.4512 15.4464 33.9055 13.8961 32.0119 13.8961H32.0038ZM11.4489 16.039C11.4489 15.1055 12.2015 14.3507 13.1321 14.3507H22.7541C23.6847 14.3507 24.4373 15.1055 24.4373 16.039V21.2662H11.4489V16.039ZM22.1148 23.612C21.605 25.4383 19.9298 26.7857 17.9391 26.7857C15.9483 26.7857 14.2732 25.4383 13.7633 23.612H22.1067H22.1148ZM2.78184 17.3458C2.78184 16.737 3.27549 16.2419 3.88242 16.2419H9.11017V21.2744H2.78184V17.3458ZM28.6292 24.2208L28.435 25.0244C28.1761 26.0958 27.7553 27.1185 27.1807 28.0682L26.7518 28.7744L29.5842 32.2809L27.7472 34.1234L24.2512 31.2825L23.5472 31.7127C22.6003 32.289 21.5807 32.7111 20.5125 32.9708L19.7113 33.1656L19.2339 37.6542H16.6362L16.1587 33.1656L15.3576 32.9708C14.2894 32.7111 13.2697 32.289 12.3229 31.7127L11.6188 31.2825L8.12288 34.1234L6.28589 32.2809L9.11826 28.7744L8.68936 28.0682C8.11479 27.1185 7.69398 26.0958 7.43502 25.0244L7.2408 24.2208L2.76566 23.7419V23.612H11.3761C11.9264 26.7451 14.6616 29.1315 17.9391 29.1315C21.2165 29.1315 23.9518 26.7451 24.5021 23.612H33.0963V23.7419L28.6212 24.2208H28.6292ZM33.1044 21.2744H26.7761V16.2419H32.0038C32.6107 16.2419 33.1044 16.737 33.1044 17.3458V21.2744Z" fill="#285DD9"/>
<path d="M28.168 4.33441C25.7969 4.33441 23.8628 6.27435 23.8628 8.65259C23.8628 11.0308 25.7969 12.9708 28.168 12.9708C30.5391 12.9708 32.4732 11.0308 32.4732 8.65259C32.4732 6.27435 30.5391 4.33441 28.168 4.33441ZM28.168 10.625C27.0836 10.625 26.2015 9.74026 26.2015 8.65259C26.2015 7.56493 27.0836 6.68019 28.168 6.68019C29.2524 6.68019 30.1344 7.56493 30.1344 8.65259C30.1344 9.74026 29.2524 10.625 28.168 10.625Z" fill="#285DD9"/>
</g>
<defs>
<clipPath id="clip0_74_14">
<rect width="35" height="40" fill="white" transform="translate(0.443115)"/>
</clipPath>
</defs>
</svg>
