<svg width="13" height="13" viewBox="0 0 13 13" fill="none" xmlns="http://www.w3.org/2000/svg">
<path fill-rule="evenodd" clip-rule="evenodd" d="M9.75131 0.929691H6.96746V0.464845C6.96746 0.208919 6.75854 0 6.50261 0C6.24669 0 6.03777 0.208919 6.03777 0.464845V0.929691H3.24869V0.464845C3.24869 0.208919 3.03977 0 2.78385 0C2.52792 0 2.319 0.208919 2.319 0.464845V0.929691H1.38931C0.621535 0.929691 0 1.55123 0 2.319V11.6055C0 12.3732 0.621535 13 1.39454 13H5.57292C5.82885 13 6.03777 12.7911 6.03777 12.5352C6.03777 12.2792 5.82885 12.0703 5.57292 12.0703H1.39454C1.13861 12.0703 0.929691 11.8614 0.929691 11.6055V4.64323H12.0703V5.57292C12.0703 5.82885 12.2792 6.03777 12.5352 6.03777C12.7911 6.03777 13 5.82885 13 5.57292V2.319C13 1.55123 12.3785 0.924468 11.6055 0.924468H10.6758V0.464845C10.6758 0.208919 10.4669 0 10.2109 0C9.955 0 9.74608 0.208919 9.74608 0.464845V0.929691H9.75131ZM9.28646 5.57292C7.23905 5.57292 5.57292 7.23905 5.57292 9.28646C5.57292 11.3339 7.23905 13 9.28646 13C11.3339 13 13 11.3339 13 9.28646C13 7.23905 11.3339 5.57292 9.28646 5.57292ZM9.28646 6.50261C10.822 6.50261 12.0703 7.7509 12.0703 9.28646C12.0703 10.822 10.822 12.0703 9.28646 12.0703C7.7509 12.0703 6.50261 10.822 6.50261 9.28646C6.50261 7.7509 7.7509 6.50261 9.28646 6.50261ZM7.79791 9.61551L8.7276 10.5452C8.82161 10.6392 8.95219 10.6914 9.08799 10.681C9.22378 10.6706 9.34391 10.6027 9.42748 10.4982L10.822 8.63881C10.9735 8.43511 10.9369 8.14263 10.728 7.99116C10.5191 7.83969 10.2318 7.87626 10.0804 8.08517L9.00964 9.51627L8.46123 8.96786C8.27843 8.78505 7.98594 8.78505 7.80313 8.96786C7.62033 9.15066 7.62033 9.44315 7.80313 9.62595L7.79791 9.61551ZM2.319 1.85938H1.38931C1.13339 1.85938 0.924468 2.0683 0.924468 2.32423V3.71876H12.0703V2.32423C12.0703 2.0683 11.8614 1.85938 11.6055 1.85938H10.6758V2.32423C10.6758 2.58015 10.4669 2.78907 10.2109 2.78907C9.955 2.78907 9.74608 2.58015 9.74608 2.32423V1.85938H6.96223V2.32423C6.96223 2.58015 6.75331 2.78907 6.49739 2.78907C6.24146 2.78907 6.03254 2.58015 6.03254 2.32423V1.85938H3.24869V2.32423C3.24869 2.58015 3.03977 2.78907 2.78385 2.78907C2.52792 2.78907 2.319 2.58015 2.319 2.32423V1.85938Z" fill="#161F26"/>
</svg>
