<svg width="13" height="13" viewBox="0 0 13 13" fill="none" xmlns="http://www.w3.org/2000/svg">
<g clip-path="url(#clip0_72_1712)">
<path d="M12.8983 9.49863C12.7016 8.46101 11.7878 7.5763 10.6046 7.51805C10.2186 7.49984 9.78175 7.28868 9.46136 6.96465L8.66767 6.17096L10.8485 4.01562L11.0997 4.26683C11.2708 4.44159 11.5657 4.38698 11.6677 4.16489L12.9092 1.43067C12.9711 1.29596 12.9419 1.13941 12.8364 1.03746L12.3376 0.538677C12.2356 0.436736 12.0754 0.407609 11.9444 0.465862L9.21014 1.70737C8.98806 1.80931 8.93344 2.10057 9.1082 2.27533L9.35577 2.5229L7.17495 4.67824L6.38854 3.89183C6.06087 3.56416 5.87519 3.18552 5.86427 2.8178C5.84243 2.19159 5.58757 1.60178 5.1434 1.15761C4.4116 0.425813 3.29024 0.236493 2.34728 0.684308C2.24534 0.731639 2.17252 0.82994 2.15068 0.942804C2.13247 1.05567 2.16888 1.16853 2.24898 1.25227L3.04995 2.05324V2.55203H2.55116L1.75383 1.74742C1.67374 1.66732 1.55723 1.63091 1.44437 1.64911C1.3315 1.66732 1.23684 1.74013 1.18587 1.84572C0.657959 2.95251 1.0184 4.25955 2.04145 4.9513C2.40917 5.19887 2.84971 5.34086 3.3048 5.35907C3.63247 5.36999 3.9565 5.5047 4.23684 5.73771C4.13126 6.00348 4.13854 6.31295 4.26961 6.57873L1.24776 9.64426C0.836357 10.0557 0.836357 10.7256 1.24776 11.1333L2.2417 12.1273C2.6531 12.5387 3.31937 12.5387 3.73442 12.1273L6.75626 9.06174C7.0184 9.18552 7.32422 9.19644 7.59364 9.09086C7.84485 9.39305 8.00505 9.76805 8.01961 10.0994C8.07786 11.279 8.96257 12.1964 10.0002 12.393C10.823 12.5496 11.6495 12.2875 12.2174 11.7159C12.7927 11.137 13.0475 10.3105 12.8946 9.49863H12.8983ZM12.0135 1.20858L12.1665 1.36149L11.2344 3.41125L9.96379 2.14062L12.0135 1.20858ZM3.33393 4.6564C3.00626 4.64547 2.69679 4.54353 2.43466 4.36877C1.85577 3.97921 1.57179 3.30931 1.66645 2.65761L2.15796 3.14911C2.22349 3.21465 2.31451 3.25106 2.40553 3.25106H3.39946C3.59243 3.25106 3.75262 3.0945 3.75262 2.8979V1.90397C3.75262 1.80931 3.71621 1.72193 3.65068 1.6564L3.15917 1.16489C3.69801 1.08843 4.25141 1.26319 4.64461 1.6564C4.96136 1.97314 5.1434 2.39547 5.15796 2.84329C5.17616 3.38941 5.43466 3.93916 5.88611 4.39426L6.67252 5.18067L6.21742 5.63212L5.96621 5.38091C5.6167 5.0314 5.09242 4.98407 4.69922 5.20979C4.29509 4.8712 3.81815 4.67824 3.33393 4.66004V4.6564ZM3.23927 11.6321C3.10092 11.7668 2.87883 11.7668 2.74412 11.6321L1.75019 10.6382C1.61184 10.4998 1.61184 10.2778 1.75019 10.1394L4.72835 7.11756L6.22107 8.61028L3.23927 11.6321ZM7.46257 8.35907C7.32422 8.49742 7.10213 8.49742 6.96378 8.35907L4.97592 6.3712C4.83757 6.23285 4.83757 6.01077 4.97592 5.87242C5.11427 5.73407 5.33636 5.73407 5.47471 5.87242L7.46257 7.86028C7.60092 7.99863 7.60092 8.22072 7.46257 8.35907ZM7.215 6.61877L6.71621 6.11999L9.85092 3.02533L10.3497 3.52411C10.1749 3.69523 7.38247 6.45494 7.215 6.62242V6.61877ZM11.7259 11.2207C11.3072 11.6394 10.7283 11.8142 10.1349 11.7013C9.4031 11.563 8.76961 10.9149 8.72592 10.0666C8.70043 9.57509 8.48199 9.05445 8.12883 8.63212C8.21985 8.47557 8.26718 8.29717 8.26718 8.10785C8.26718 7.82751 8.15796 7.56174 7.95772 7.36149L7.71014 7.11392L8.16524 6.66246L8.96257 7.45979C9.41039 7.90761 10.0111 8.18795 10.5718 8.21708C11.4201 8.26077 12.0682 8.89062 12.2065 9.62606C12.3194 10.2195 12.1446 10.7984 11.7259 11.2171V11.2207Z" fill="#161F26"/>
<path d="M10.4808 8.92342C9.89823 8.92342 9.42493 9.39672 9.42493 9.97924C9.42493 10.5618 9.89823 11.0351 10.4808 11.0351C11.0633 11.0351 11.5366 10.5618 11.5366 9.97924C11.5366 9.39672 11.0633 8.92342 10.4808 8.92342ZM10.4808 10.3288C10.2878 10.3288 10.1276 10.1722 10.1276 9.9756C10.1276 9.779 10.2842 9.62245 10.4808 9.62245C10.6774 9.62245 10.8339 9.779 10.8339 9.9756C10.8339 10.1686 10.6774 10.3288 10.4808 10.3288Z" fill="#161F26"/>
</g>
<defs>
<clipPath id="clip0_72_1712">
<rect width="12" height="12" fill="white" transform="translate(0.941895 0.436768)"/>
</clipPath>
</defs>
</svg>
