<svg width="21" height="24" viewBox="0 0 21 24" fill="none" xmlns="http://www.w3.org/2000/svg">
<path d="M18.375 5.98C15.4613 5.65 12.53 5.48 9.6075 5.48C7.875 5.48 6.1425 5.58 4.41 5.78L2.625 5.98M7.4375 4.97L7.63 3.66C7.77 2.71 7.875 2 9.35375 2H11.6463C13.125 2 13.2387 2.75 13.37 3.67L13.5625 4.97M16.4938 9.14L15.925 19.21C15.8288 20.78 15.75 22 13.3088 22H7.69125C5.25 22 5.17125 20.78 5.075 19.21L4.50625 9.14M9.03875 16.5H11.9525M8.3125 12.5H12.6875" stroke="#1A2128" stroke-width="1.5" stroke-linecap="round" stroke-linejoin="round"/>
</svg>
