<svg width="206" height="211" viewBox="0 0 206 211" fill="none" xmlns="http://www.w3.org/2000/svg">
<path d="M39.9645 159.263C48.677 152.411 58.4145 147.007 69.1769 143.05C79.9395 139.1 91.2145 137.126 103.002 137.126C114.789 137.126 126.064 139.1 136.827 143.05C147.589 147.007 157.327 152.411 166.039 159.263C172.019 152.06 176.676 143.89 180.01 134.754C183.338 125.618 185.002 115.866 185.002 105.501C185.002 82.1332 177.017 62.234 161.048 45.8031C145.071 29.3792 125.723 21.1672 103.002 21.1672C80.2811 21.1672 60.936 29.3792 44.9664 45.8031C28.9901 62.234 21.002 82.1332 21.002 105.501C21.002 115.866 22.6693 125.618 26.004 134.754C29.3318 143.89 33.9853 152.06 39.9645 159.263ZM103.002 116.042C92.9228 116.042 84.4221 112.486 77.5 105.374C70.5846 98.2549 67.127 89.5123 67.127 79.1464C67.127 68.7804 70.5846 60.0378 77.5 52.9187C84.4221 45.8066 92.9228 42.2505 103.002 42.2505C113.081 42.2505 121.582 45.8066 128.504 52.9187C135.419 60.0378 138.877 68.7804 138.877 79.1464C138.877 89.5123 135.419 98.2549 128.504 105.374C121.582 112.486 113.081 116.042 103.002 116.042ZM103.002 210.917C88.8228 210.917 75.4978 208.148 63.027 202.61C50.5561 197.079 39.7082 189.57 30.4832 180.083C21.2582 170.595 13.9568 159.439 8.57895 146.613C3.19429 133.787 0.501953 120.083 0.501953 105.501C0.501953 90.9179 3.19429 77.2137 8.57895 64.388C13.9568 51.5623 21.2582 40.4057 30.4832 30.9182C39.7082 21.4307 50.5561 13.918 63.027 8.38015C75.4978 2.84929 88.8228 0.0838623 103.002 0.0838623C117.181 0.0838623 130.506 2.84929 142.977 8.38015C155.448 13.918 166.296 21.4307 175.521 30.9182C184.746 40.4057 192.047 51.5623 197.425 64.388C202.81 77.2137 205.502 90.9179 205.502 105.501C205.502 120.083 202.81 133.787 197.425 146.613C192.047 159.439 184.746 170.595 175.521 180.083C166.296 189.57 155.448 197.079 142.977 202.61C130.506 208.148 117.181 210.917 103.002 210.917ZM103.002 189.834C112.056 189.834 120.598 188.474 128.627 185.754C136.656 183.027 144.002 179.116 150.664 174.021C144.002 168.926 136.656 165.015 128.627 162.288C120.598 159.569 112.056 158.209 103.002 158.209C93.9478 158.209 85.4061 159.569 77.377 162.288C69.3478 165.015 62.002 168.926 55.3395 174.021C62.002 179.116 69.3478 183.027 77.377 185.754C85.4061 188.474 93.9478 189.834 103.002 189.834ZM103.002 94.9589C107.444 94.9589 111.117 93.4655 114.021 90.4786C116.925 87.4918 118.377 83.7144 118.377 79.1464C118.377 74.5783 116.925 70.8009 114.021 67.8141C111.117 64.8273 107.444 63.3339 103.002 63.3339C98.5603 63.3339 94.8874 64.8273 91.9832 67.8141C89.079 70.8009 87.627 74.5783 87.627 79.1464C87.627 83.7144 89.079 87.4918 91.9832 90.4786C94.8874 93.4655 98.5603 94.9589 103.002 94.9589Z" fill="#7F99D3"/>
</svg>
