<svg width="14" height="14" viewBox="0 0 14 14" fill="none" xmlns="http://www.w3.org/2000/svg">
<path fill-rule="evenodd" clip-rule="evenodd" d="M13.125 13.125C12.6418 13.125 12.25 12.7332 12.25 12.25V1.75C12.25 1.26675 12.6418 0.874999 13.125 0.874999C13.6082 0.874999 14 1.26675 14 1.75V12.25C14 12.7332 13.6082 13.125 13.125 13.125ZM4.11872 10.2437C3.77701 10.5854 3.22299 10.5854 2.88128 10.2437L0.256282 7.61872C0.0921875 7.45462 1.01439e-08 7.23206 0 7C-1.01439e-08 6.76794 0.0921875 6.54538 0.256282 6.38128L2.88128 3.75628C3.22299 3.41457 3.77701 3.41457 4.11872 3.75628C4.46043 4.09799 4.46043 4.65201 4.11872 4.99372L2.98744 6.125L9.625 6.125C10.1082 6.125 10.5 6.51675 10.5 7C10.5 7.48325 10.1082 7.875 9.625 7.875L2.98744 7.875L4.11872 9.00628C4.46043 9.34799 4.46043 9.90201 4.11872 10.2437Z" fill="#161F26"/>
</svg>
