<svg width="28" height="30" viewBox="0 0 28 30" fill="none" xmlns="http://www.w3.org/2000/svg">
<path d="M5.66675 30C4.75008 30 3.96564 29.6739 3.31341 29.0217C2.66008 28.3683 2.33341 27.5833 2.33341 26.6667V5C1.86119 5 1.46508 4.84056 1.14508 4.52167C0.826193 4.20167 0.666748 3.80556 0.666748 3.33333C0.666748 2.86111 0.826193 2.465 1.14508 2.145C1.46508 1.82611 1.86119 1.66667 2.33341 1.66667H9.00008C9.00008 1.19444 9.16008 0.798333 9.48008 0.478333C9.79897 0.159444 10.1945 0 10.6667 0H17.3334C17.8056 0 18.2017 0.159444 18.5217 0.478333C18.8406 0.798333 19.0001 1.19444 19.0001 1.66667H25.6667C26.139 1.66667 26.5345 1.82611 26.8534 2.145C27.1734 2.465 27.3334 2.86111 27.3334 3.33333C27.3334 3.80556 27.1734 4.20167 26.8534 4.52167C26.5345 4.84056 26.139 5 25.6667 5V26.6667C25.6667 27.5833 25.3406 28.3683 24.6884 29.0217C24.0351 29.6739 23.2501 30 22.3334 30H5.66675ZM9.00008 21.6667C9.00008 22.1389 9.16008 22.5344 9.48008 22.8533C9.79897 23.1733 10.1945 23.3333 10.6667 23.3333C11.139 23.3333 11.5351 23.1733 11.8551 22.8533C12.174 22.5344 12.3334 22.1389 12.3334 21.6667V10C12.3334 9.52778 12.174 9.13167 11.8551 8.81167C11.5351 8.49278 11.139 8.33333 10.6667 8.33333C10.1945 8.33333 9.79897 8.49278 9.48008 8.81167C9.16008 9.13167 9.00008 9.52778 9.00008 10V21.6667ZM15.6667 21.6667C15.6667 22.1389 15.8267 22.5344 16.1467 22.8533C16.4656 23.1733 16.8612 23.3333 17.3334 23.3333C17.8056 23.3333 18.2017 23.1733 18.5217 22.8533C18.8406 22.5344 19.0001 22.1389 19.0001 21.6667V10C19.0001 9.52778 18.8406 9.13167 18.5217 8.81167C18.2017 8.49278 17.8056 8.33333 17.3334 8.33333C16.8612 8.33333 16.4656 8.49278 16.1467 8.81167C15.8267 9.13167 15.6667 9.52778 15.6667 10V21.6667Z" fill="#63FFFE"/>
</svg>
