<svg width="22" height="26" viewBox="0 0 22 26" fill="none" xmlns="http://www.w3.org/2000/svg">
<g clip-path="url(#clip0_82_489)">
<path d="M21.4353 16.0967C21.7873 15.6929 22 15.1597 22 14.5731C22 13.3161 21.01 12.2877 19.8 12.2877H15.532C15.9573 10.9546 16.1333 9.18721 16.1333 8.42542V7.66363C16.1333 5.98007 14.8207 4.61646 13.2 4.61646H12.4667C12.1293 4.61646 11.836 4.85261 11.7553 5.19542L11.3593 6.85613C10.802 9.1796 9.02 11.7468 7.18667 12.2115C6.864 11.3659 6.072 10.7641 5.14067 10.7641H0.733333C0.33 10.7641 0 11.1069 0 11.5259V25.2382C0 25.6572 0.33 26 0.733333 26H5.13333C6.006 26 6.76133 25.4667 7.12067 24.6973L9.64333 25.5734C10.4647 25.8552 11.3227 26 12.1953 26H18.3407C19.5507 26 20.5407 24.9716 20.5407 23.7146C20.5407 23.4175 20.4893 23.1356 20.3867 22.869C21.318 22.6024 22.0073 21.7187 22.0073 20.6674C22.0073 20.0809 21.7947 19.5476 21.4427 19.1439C21.7947 18.7401 22.0073 18.2068 22.0073 17.6203C22.0073 17.0337 21.7947 16.5004 21.4427 16.0967H21.4353ZM5.86667 23.7146C5.86667 24.1336 5.53667 24.4764 5.13333 24.4764H1.46667V12.2877H5.13333C5.53667 12.2877 5.86667 12.6305 5.86667 13.0495V23.7146ZM18.3333 16.8585H19.8C20.2033 16.8585 20.5333 17.2013 20.5333 17.6203C20.5333 18.0393 20.2033 18.3821 19.8 18.3821H18.3333C17.93 18.3821 17.6 18.7249 17.6 19.1439C17.6 19.5628 17.93 19.9056 18.3333 19.9056H19.8C20.2033 19.9056 20.5333 20.2485 20.5333 20.6674C20.5333 21.0864 20.2033 21.4292 19.8 21.4292H18.3333C17.93 21.4292 17.6 21.772 17.6 22.191C17.6 22.61 17.93 22.9528 18.3333 22.9528C18.7367 22.9528 19.0667 23.2956 19.0667 23.7146C19.0667 24.1336 18.7367 24.4764 18.3333 24.4764H12.188C11.4767 24.4764 10.7727 24.3545 10.098 24.126L7.326 23.1661V13.7427C8.47733 13.5142 9.59933 12.76 10.6187 11.5183C11.6087 10.307 12.4153 8.70728 12.7747 7.22941L13.0387 6.14766H13.2C14.0067 6.14766 14.6667 6.83327 14.6667 7.67125V8.43304C14.6667 9.45384 14.3587 11.4193 13.9627 12.2953H12.4667C12.0633 12.2953 11.7333 12.6381 11.7333 13.0571C11.7333 13.4761 12.0633 13.8189 12.4667 13.8189H19.8C20.2033 13.8189 20.5333 14.1617 20.5333 14.5807C20.5333 14.9997 20.2033 15.3425 19.8 15.3425H18.3333C17.93 15.3425 17.6 15.6853 17.6 16.1043C17.6 16.5233 17.93 16.8661 18.3333 16.8661V16.8585Z" fill="#161F26"/>
<path d="M3.66667 22.9528C4.07168 22.9528 4.4 22.6117 4.4 22.191C4.4 21.7703 4.07168 21.4292 3.66667 21.4292C3.26166 21.4292 2.93333 21.7703 2.93333 22.191C2.93333 22.6117 3.26166 22.9528 3.66667 22.9528Z" fill="#161F26"/>
<path d="M13.9333 0C13.53 0 13.2 0.342807 13.2 0.761793V2.33871C13.2 2.75769 13.53 3.1005 13.9333 3.1005C14.3367 3.1005 14.6667 2.75769 14.6667 2.33871V0.761793C14.6667 0.342807 14.3367 0 13.9333 0Z" fill="#161F26"/>
<path d="M10.824 3.35951L9.79 2.28539C9.504 1.98829 9.042 1.98829 8.756 2.28539C8.47 2.58248 8.47 3.06241 8.756 3.35951L9.79 4.43364C10.076 4.73074 10.538 4.73074 10.824 4.43364C11.11 4.13654 11.11 3.65661 10.824 3.35951Z" fill="#161F26"/>
<path d="M19.118 2.28539C18.832 1.98829 18.37 1.98829 18.084 2.28539L17.05 3.35951C16.764 3.65661 16.764 4.13654 17.05 4.43364C17.336 4.73074 17.798 4.73074 18.084 4.43364L19.118 3.35951C19.404 3.06241 19.404 2.58248 19.118 2.28539Z" fill="#161F26"/>
</g>
<defs>
<clipPath id="clip0_82_489">
<rect width="22" height="26" fill="white"/>
</clipPath>
</defs>
</svg>
