<svg width="15" height="15" viewBox="0 0 15 15" fill="none" xmlns="http://www.w3.org/2000/svg">
<path d="M7.5 12.8572V9.10721C7.5 8.90423 7.38543 8.71903 7.20389 8.628L3.98961 7.02086C3.83894 6.94552 3.66106 6.94552 3.51039 7.02086L0.296108 8.628C0.114572 8.71903 0 8.90423 0 9.10721V12.8572C0 13.0602 0.114572 13.2454 0.296108 13.3364L3.51039 14.9436C3.58573 14.9812 3.66786 15.0001 3.75 15.0001C3.83214 15.0001 3.91427 14.9812 3.98961 14.9436L7.20389 13.3364C7.38543 13.2454 7.5 13.0602 7.5 12.8572ZM3.75 8.09909L5.76651 9.10721L3.75 10.1153L1.73349 9.10721L3.75 8.09909ZM1.07143 9.97409L3.21429 11.0455V13.5975L1.07143 12.5261V9.97409ZM4.28571 13.5975V11.0455L6.42857 9.97409V12.5261L4.28571 13.5975Z" fill="black"/>
<path d="M14.4644 0H3.75007C3.45422 0 3.21436 0.239607 3.21436 0.535714V5.89286C3.21436 6.18896 3.45422 6.42857 3.75007 6.42857C4.04592 6.42857 4.28578 6.18896 4.28578 5.89286V1.07143H13.9286V13.9286H6.96436C6.66851 13.9286 6.42864 14.1682 6.42864 14.4643C6.42864 14.7604 6.66851 15 6.96436 15H14.4644C14.7602 15 15.0001 14.7604 15.0001 14.4643V0.535714C15.0001 0.239607 14.7602 0 14.4644 0Z" fill="black"/>
<path d="M5.89314 3.21401H12.3217C12.6176 3.21401 12.8574 2.9744 12.8574 2.67829C12.8574 2.38218 12.6176 2.14258 12.3217 2.14258H5.89314C5.59729 2.14258 5.35742 2.38218 5.35742 2.67829C5.35742 2.9744 5.59729 3.21401 5.89314 3.21401Z" fill="black"/>
<path d="M5.89314 4.82143H12.3217C12.6176 4.82143 12.8574 4.58182 12.8574 4.28571C12.8574 3.98961 12.6176 3.75 12.3217 3.75H5.89314C5.59729 3.75 5.35742 3.98961 5.35742 4.28571C5.35742 4.58182 5.59729 4.82143 5.89314 4.82143Z" fill="black"/>
<path d="M5.89314 6.42885H12.3217C12.6176 6.42885 12.8574 6.18924 12.8574 5.89314C12.8574 5.59703 12.6176 5.35742 12.3217 5.35742H5.89314C5.59729 5.35742 5.35742 5.59703 5.35742 5.89314C5.35742 6.18924 5.59729 6.42885 5.89314 6.42885Z" fill="black"/>
<path d="M12.3215 6.96436H7.50007C7.20422 6.96436 6.96436 7.20396 6.96436 7.50007C6.96436 7.79618 7.20422 8.03578 7.50007 8.03578H12.3215C12.6173 8.03578 12.8572 7.79618 12.8572 7.50007C12.8572 7.20396 12.6173 6.96436 12.3215 6.96436Z" fill="black"/>
<path d="M12.3214 8.57178H8.57136C8.27551 8.57178 8.03564 8.81138 8.03564 9.10749C8.03564 9.4036 8.27551 9.64321 8.57136 9.64321H12.3214C12.6172 9.64321 12.8571 9.4036 12.8571 9.10749C12.8571 8.81138 12.6172 8.57178 12.3214 8.57178Z" fill="black"/>
<path d="M12.3214 10.1782H8.57136C8.27551 10.1782 8.03564 10.4178 8.03564 10.7139C8.03564 11.01 8.27551 11.2497 8.57136 11.2497H12.3214C12.6172 11.2497 12.8571 11.01 12.8571 10.7139C12.8571 10.4178 12.6172 10.1782 12.3214 10.1782Z" fill="black"/>
<path d="M12.3214 11.7856H8.57136C8.27551 11.7856 8.03564 12.0253 8.03564 12.3214C8.03564 12.6175 8.27551 12.8571 8.57136 12.8571H12.3214C12.6172 12.8571 12.8571 12.6175 12.8571 12.3214C12.8571 12.0253 12.6172 11.7856 12.3214 11.7856Z" fill="black"/>
</svg>
