<svg width="165" height="64" viewBox="0 0 165 64" fill="none" xmlns="http://www.w3.org/2000/svg">
<rect x="18" y="14" width="147" height="37" rx="18.5" fill="white"/>
<path d="M68.6073 20.9305H73.5584V21.6143H69.362V24.4859H73.2954V25.1696H69.362V28.3147H73.7414V28.9984H68.6073V20.9305Z" fill="#263D92"/>
<path d="M78.5782 27.5057C78.7754 27.8475 79.0327 28.1011 79.35 28.2691C79.6673 28.4372 80.0275 28.5198 80.4305 28.5198C80.6821 28.5198 80.9194 28.4828 81.1395 28.4059C81.3596 28.329 81.554 28.2236 81.7169 28.0868C81.8799 27.9501 82.0114 27.7848 82.1057 27.5911C82.2 27.3974 82.2486 27.178 82.2486 26.9359C82.2486 26.6539 82.1886 26.4231 82.0714 26.2408C81.9542 26.0585 81.7941 25.9075 81.5969 25.7907C81.3996 25.6739 81.1766 25.5713 80.9279 25.4887C80.6792 25.4061 80.4248 25.3206 80.1618 25.238C79.8988 25.1554 79.6444 25.0585 79.3957 24.9531C79.147 24.8477 78.9241 24.7081 78.7268 24.5372C78.5296 24.3663 78.3695 24.1526 78.2523 23.8933C78.1351 23.6341 78.075 23.315 78.075 22.9361C78.075 22.58 78.1465 22.261 78.2866 21.9846C78.4267 21.7083 78.6182 21.4747 78.8583 21.2895C79.0984 21.1044 79.3729 20.9619 79.6873 20.8679C79.9989 20.7739 80.3276 20.7255 80.6707 20.7255C81.1138 20.7255 81.5225 20.8024 81.8999 20.9591C82.2772 21.1158 82.6031 21.375 82.8775 21.7396L82.2258 22.2068C82.0342 21.9419 81.8113 21.7425 81.5568 21.6086C81.3024 21.4747 80.9994 21.4092 80.6478 21.4092C80.4048 21.4092 80.1704 21.4405 79.9503 21.506C79.7302 21.5716 79.5358 21.6656 79.3729 21.7909C79.2099 21.9163 79.0784 22.073 78.9784 22.2638C78.8783 22.4547 78.8297 22.6769 78.8297 22.9361C78.8297 23.3378 78.9326 23.6484 79.1384 23.8649C79.3443 24.0814 79.6015 24.2523 79.9103 24.3776C80.219 24.503 80.5535 24.6141 80.9165 24.7081C81.2796 24.8021 81.614 24.9303 81.9227 25.0899C82.2315 25.2494 82.4887 25.4716 82.6946 25.7565C82.9004 26.0414 83.0033 26.4345 83.0033 26.9359C83.0033 27.3005 82.9347 27.6225 82.7975 27.9045C82.6603 28.1865 82.4745 28.423 82.2429 28.6167C82.0114 28.8104 81.7426 28.9557 81.4368 29.0554C81.1309 29.1551 80.8165 29.2035 80.4877 29.2035C79.9532 29.2035 79.4615 29.1095 79.0127 28.9244C78.5639 28.7392 78.178 28.4258 77.8578 27.9843L78.5782 27.5057Z" fill="#263D92"/>
<path d="M89.4838 21.6143H86.7167V20.9305H93.0056V21.6143H90.2385V28.9984H89.4838V21.6143Z" fill="#263D92"/>
<path d="M97.2249 20.9305H97.9795V28.9984H97.2249V20.9305Z" fill="#263D92"/>
<path d="M103.091 20.9305H104.223L107.173 27.6993L110.123 20.9305H111.198V28.9984H110.443V21.8877H110.42L107.333 28.9984H107.001L103.868 21.8877H103.845V28.9984H103.091V20.9305Z" fill="#263D92"/>
<path d="M118.788 20.9305H119.565L122.973 28.9984H122.126L121.246 26.8561H116.958L116.043 28.9984H115.254L118.788 20.9305ZM119.142 21.751L117.255 26.1724H120.972L119.142 21.751Z" fill="#263D92"/>
<path d="M128.127 21.6143H125.359V20.9305H131.648V21.6143H128.881V28.9984H128.127V21.6143Z" fill="#263D92"/>
<path d="M135.868 20.9305H140.819V21.6143H136.622V24.4859H140.556V25.1696H136.622V28.3147H141.002V28.9984H135.868V20.9305Z" fill="#263D92"/>
<path d="M145.516 20.9305H148.02C148.72 20.9305 149.315 21.016 149.803 21.1869C150.292 21.3579 150.698 21.5772 151.021 21.8422C151.344 22.1071 151.601 22.4034 151.787 22.7253C151.973 23.0472 152.11 23.3577 152.199 23.654C152.288 23.9503 152.342 24.2181 152.365 24.4574C152.388 24.6967 152.399 24.8648 152.399 24.9645C152.399 25.0642 152.388 25.2323 152.365 25.4716C152.342 25.7109 152.288 25.9786 152.199 26.2749C152.11 26.5712 151.973 26.8817 151.787 27.2036C151.601 27.5256 151.344 27.8218 151.021 28.0868C150.698 28.3517 150.292 28.5711 149.803 28.742C149.315 28.9129 148.72 28.9984 148.02 28.9984H145.516V20.9305ZM146.27 28.3147H147.825C148.36 28.3147 148.857 28.2492 149.323 28.1153C149.789 27.9814 150.192 27.7791 150.535 27.5056C150.878 27.2321 151.15 26.8846 151.347 26.4629C151.544 26.0413 151.644 25.5428 151.644 24.9645C151.644 24.3862 151.544 23.8876 151.347 23.466C151.15 23.0444 150.878 22.6968 150.535 22.4233C150.192 22.1498 149.789 21.9476 149.323 21.8137C148.857 21.6798 148.36 21.6143 147.825 21.6143H146.27V28.3147Z" fill="#263D92"/>
<path d="M75.1479 36.3428C74.9249 36.0636 74.6247 35.8556 74.2445 35.7217C73.8643 35.5878 73.5041 35.5195 73.1668 35.5195C72.9667 35.5195 72.7638 35.5422 72.5522 35.5907C72.3407 35.6363 72.1434 35.7103 71.9548 35.81C71.769 35.9097 71.6146 36.0408 71.5003 36.2032C71.3831 36.3656 71.3259 36.565 71.3259 36.7957C71.3259 37.1689 71.466 37.4538 71.7461 37.6504C72.0262 37.8498 72.3807 38.0179 72.8066 38.1575C73.2326 38.2971 73.6928 38.4366 74.1816 38.5762C74.6705 38.7158 75.1307 38.9152 75.5566 39.1688C75.9826 39.4252 76.337 39.7699 76.6172 40.2001C76.8973 40.6302 77.0374 41.2085 77.0374 41.9293C77.0374 42.65 76.9088 43.217 76.6515 43.7297C76.3942 44.2425 76.0455 44.667 75.6081 45.006C75.1707 45.345 74.6619 45.5957 74.0844 45.7581C73.507 45.9205 72.8953 46.0031 72.2521 46.0031C71.4459 46.0031 70.697 45.8806 70.0081 45.6356C69.3191 45.3906 68.6759 44.9946 68.0785 44.4476L70.0252 42.3167C70.3054 42.6899 70.6598 42.9777 71.0858 43.1828C71.5117 43.3879 71.9548 43.4876 72.4093 43.4876C72.6323 43.4876 72.8552 43.462 73.0839 43.4078C73.3126 43.3566 73.5156 43.2768 73.6985 43.1714C73.8786 43.066 74.0244 42.9321 74.1359 42.7697C74.2474 42.6073 74.3017 42.4136 74.3017 42.1942C74.3017 41.821 74.1588 41.5276 73.8729 41.3111C73.587 41.0946 73.2269 40.9123 72.7952 40.7613C72.3636 40.6103 71.8947 40.4593 71.3916 40.3083C70.8885 40.1573 70.4226 39.9522 69.988 39.6958C69.5564 39.4394 69.1962 39.1033 68.9103 38.6816C68.6245 38.2629 68.4816 37.7102 68.4816 37.0208C68.4816 36.3314 68.6131 35.7758 68.876 35.2745C69.139 34.7731 69.4906 34.3543 69.928 34.0153C70.3654 33.6763 70.8714 33.4256 71.4431 33.2546C72.0148 33.0866 72.6065 33.0011 73.2126 33.0011C73.9129 33.0011 74.5904 33.1008 75.245 33.2974C75.8997 33.4968 76.4885 33.8273 77.0145 34.2945L75.1393 36.3371L75.1479 36.3428Z" fill="#263D92"/>
<path d="M84.5613 33.3201H86.8224L92.2223 45.6896H89.1379L88.0688 43.0687H83.2491L82.2143 45.6896H79.1985L84.5641 33.3201H84.5613ZM85.6132 36.9181L84.1067 40.7612H87.1397L85.6161 36.9181H85.6132Z" fill="#263D92"/>
<path d="M92.5568 33.3201H95.6784L98.7457 41.4278H98.78L101.902 33.3201H104.829L99.709 45.6896H97.5165L92.5568 33.3201Z" fill="#263D92"/>
<path d="M107.493 33.3201H110.229V45.6896H107.493V33.3201Z" fill="#263D92"/>
<path d="M114.117 33.3201H117.833L123.11 41.915H123.144V33.3201H125.88V45.6896H122.304L116.887 36.8839H116.852V45.6896H114.117V33.3201Z" fill="#263D92"/>
<path d="M141.045 44.8152C140.239 45.234 139.398 45.5388 138.52 45.724C137.643 45.9091 136.751 46.0031 135.839 46.0031C134.87 46.0031 133.975 45.8522 133.158 45.5502C132.34 45.2482 131.631 44.8152 131.037 44.2483C130.442 43.6814 129.976 43.0005 129.642 42.1943C129.307 41.3881 129.141 40.4935 129.141 39.505C129.141 38.5165 129.307 37.6191 129.642 36.8157C129.976 36.0123 130.439 35.3286 131.037 34.7617C131.631 34.1976 132.34 33.7646 133.158 33.4598C133.975 33.1578 134.87 33.0068 135.839 33.0068C136.808 33.0068 137.746 33.1265 138.583 33.3658C139.418 33.6051 140.153 34.0153 140.785 34.5965L138.855 36.6932C138.48 36.3086 138.06 36.018 137.591 35.8186C137.123 35.6221 136.539 35.5223 135.839 35.5223C135.256 35.5223 134.727 35.6221 134.253 35.8186C133.778 36.018 133.372 36.2944 133.035 36.6476C132.695 37.0037 132.434 37.4254 132.254 37.9154C132.074 38.4053 131.983 38.9352 131.983 39.505C131.983 40.0748 132.074 40.6217 132.254 41.1032C132.434 41.5875 132.695 42.0063 133.035 42.3624C133.375 42.7185 133.781 42.9948 134.253 43.1914C134.727 43.3908 135.256 43.4876 135.839 43.4876C136.422 43.4876 136.948 43.4193 137.383 43.2854C137.814 43.1515 138.16 43.0147 138.418 42.8751V40.8667H136.191V38.3512H141.047V44.8152H141.045Z" fill="#263D92"/>
<path d="M150.984 36.3428C150.761 36.0636 150.461 35.8556 150.081 35.7217C149.701 35.5878 149.34 35.5195 149.003 35.5195C148.803 35.5195 148.6 35.5422 148.388 35.5907C148.177 35.6363 147.98 35.7103 147.794 35.81C147.608 35.9097 147.454 36.0408 147.339 36.2032C147.222 36.3656 147.165 36.565 147.165 36.7957C147.165 37.1689 147.305 37.4538 147.585 37.6504C147.865 37.8498 148.22 38.0179 148.646 38.1575C149.072 38.2971 149.532 38.4366 150.021 38.5762C150.512 38.7158 150.97 38.9152 151.396 39.1688C151.822 39.4252 152.176 39.7699 152.456 40.2001C152.736 40.6302 152.877 41.2085 152.877 41.9293C152.877 42.65 152.748 43.217 152.491 43.7297C152.233 44.2425 151.885 44.667 151.447 45.006C151.01 45.345 150.501 45.5957 149.924 45.7581C149.346 45.9205 148.734 46.0031 148.091 46.0031C147.285 46.0031 146.536 45.8806 145.847 45.6356C145.158 45.3906 144.515 44.9946 143.918 44.4476L145.864 42.3167C146.144 42.6899 146.499 42.9777 146.925 43.1828C147.351 43.3879 147.794 43.4876 148.248 43.4876C148.471 43.4876 148.694 43.462 148.923 43.4078C149.152 43.3566 149.355 43.2768 149.538 43.1714C149.718 43.066 149.864 42.9321 149.975 42.7697C150.086 42.6073 150.141 42.4136 150.141 42.1942C150.141 41.821 149.998 41.5276 149.712 41.3111C149.426 41.0946 149.066 40.9123 148.634 40.7613C148.203 40.6103 147.734 40.4593 147.231 40.3083C146.728 40.1573 146.262 39.9522 145.827 39.6958C145.396 39.4394 145.035 39.1033 144.749 38.6816C144.464 38.2629 144.321 37.7102 144.321 37.0208C144.321 36.3314 144.452 35.7758 144.715 35.2745C144.978 34.7731 145.33 34.3543 145.767 34.0153C146.204 33.6763 146.71 33.4256 147.282 33.2546C147.854 33.0866 148.446 33.0011 149.052 33.0011C149.752 33.0011 150.43 33.1008 151.084 33.2974C151.739 33.4968 152.328 33.8273 152.854 34.2945L150.978 36.3371L150.984 36.3428Z" fill="#263D92"/>
<g clip-path="url(#clip0_631_533)">
<path fill-rule="evenodd" clip-rule="evenodd" d="M32.0011 0L33.4321 1.98871L35.0462 0.145945L36.281 2.26016L38.0633 0.579237L39.0912 2.80078L41.0253 1.2959L41.8383 3.60717L43.9066 2.29253L44.4967 4.67024L46.6805 3.55833L47.0415 5.97863L49.3201 5.07911L49.448 7.5261L51.804 6.84522L51.6988 9.29164L54.1071 8.84018L53.7705 11.2667L56.2118 11.0435L55.6444 13.4275L58.0953 13.4377L57.305 15.7564L59.744 15.9994L58.736 18.2335L61.1409 18.7071L59.9265 20.8338L62.2745 21.5346L60.8612 23.5352L63.1341 24.4552L61.536 26.3138L63.7101 27.4462L61.9436 29.1436L64 30.4781L62.0795 32.0011L64 33.5219L61.9436 34.8564L63.7101 36.5538L61.536 37.6862L63.1341 39.5448L60.8612 40.4648L62.2745 42.4654L59.9265 43.1662L61.1409 45.2929L58.736 45.7688L59.744 48.0006L57.305 48.2436L58.0953 50.5623L55.6444 50.5725L56.2118 52.9565L53.7705 52.7333L54.1071 55.1598L51.6988 54.7084L51.804 57.1548L49.448 56.4739L49.3201 58.9209L47.0415 58.0214L46.6805 60.4439L44.4967 59.332L43.9066 61.7075L41.8383 60.3928L41.0253 62.7041L39.0912 61.1992L38.0633 63.4208L36.281 61.7398L35.0462 63.8541L33.4321 62.0113L32.0011 64L30.5696 62.0113L28.9555 63.8541L27.7184 61.7398L25.9367 63.4208L24.9088 61.1992L22.9741 62.7041L22.1611 60.3928L20.0928 61.7075L19.505 59.332L17.3195 60.4439L16.9602 58.0214L14.6793 58.9209L14.552 56.4739L12.196 57.1548L12.3012 54.7084L9.89234 55.1598L10.2312 52.7333L7.78766 52.9565L8.35561 50.5725L5.90413 50.5623L6.69495 48.2436L4.25598 48.0006L5.2634 45.7688L2.85911 45.2929L4.07519 43.1662L1.72547 42.4654L3.13883 40.4648L0.867569 39.5448L2.46342 37.6862L0.289948 36.5538L2.05579 34.8564L0 33.5219L1.91991 32.0011L0 30.4781L2.05579 29.1436L0.289948 27.4462L2.46342 26.3138L0.867569 24.4552L3.13883 23.5352L1.72547 21.5346L4.07519 20.8338L2.85911 18.7071L5.2634 18.2335L4.25598 15.9994L6.69495 15.7564L5.90413 13.4377L8.35561 13.4275L7.78766 11.0435L10.2312 11.2667L9.89234 8.84018L12.3012 9.29164L12.196 6.84522L14.552 7.5261L14.6793 5.07911L16.9602 5.97863L17.3195 3.55833L19.505 4.67024L20.0928 2.29253L22.1611 3.60717L22.9741 1.2959L24.9088 2.80078L25.9367 0.579237L27.7184 2.26016L28.9555 0.145945L30.5696 1.98871L32.0011 0Z" fill="#3AA9E1"/>
<path d="M42.6962 6.18074C39.4033 4.81783 35.7926 4.06653 32.0011 4.06653C28.2096 4.06653 24.5983 4.81783 21.306 6.18074C17.8874 7.59419 14.8077 9.67036 12.2283 12.2485C9.64724 14.8244 7.57099 17.9012 6.15365 21.3159C4.84377 24.4772 4.09787 27.9322 4.04102 31.5598H10.7763C10.8309 28.8499 11.3966 26.2638 12.3801 23.8923C13.4569 21.296 15.034 18.9586 16.9886 17.0062C18.9455 15.0516 21.2832 13.478 23.8825 12.403C26.3846 11.3683 29.126 10.797 31.9988 10.797C34.8716 10.797 37.613 11.3683 40.1151 12.403C42.7144 13.4786 45.0544 15.0539 47.009 17.0062C48.9659 18.9609 50.5413 21.296 51.6197 23.8923C52.6033 26.2638 53.169 28.8499 53.2235 31.5598H59.9589C59.902 27.9345 59.1561 24.4772 57.8462 21.3159C56.4312 17.9012 54.3526 14.825 51.7715 12.2485C49.1927 9.67036 46.1124 7.59647 42.6939 6.18074H42.6962ZM4.04102 32.4406C4.09787 36.066 4.84377 39.5232 6.15365 42.6823C7.56871 46.097 9.64724 49.1732 12.2283 51.7497C14.8072 54.3278 17.8874 56.4017 21.306 57.8174C24.5989 59.1804 28.2119 59.9317 32.0011 59.9317C35.7903 59.9317 39.4038 59.1804 42.6962 57.8174C46.1147 56.404 49.1944 54.3278 51.7738 51.7497C54.3549 49.1738 56.4312 46.097 57.8485 42.6823C59.1584 39.5232 59.9043 36.066 59.9611 32.4406H53.2258C53.1712 35.1505 52.6056 37.7367 51.622 40.1064C50.5452 42.7028 48.9681 45.0402 47.0113 46.9925C45.0544 48.9472 42.7166 50.5208 40.1173 51.598C37.6153 52.6327 34.8738 53.204 32.0011 53.204C29.1283 53.204 26.3869 52.6327 23.8848 51.598C21.2855 50.5225 18.9455 48.9472 16.9909 46.9925C15.034 45.0379 13.4586 42.7028 12.3824 40.1064C11.3989 37.735 10.8332 35.1488 10.7786 32.4406H4.04102Z" fill="#263D92"/>
<path d="M32.191 6.78735C35.6192 6.78735 38.8905 7.46938 41.8753 8.70451C44.976 9.98735 47.7663 11.867 50.099 14.1965C52.4311 16.5259 54.3129 19.3136 55.5972 22.4109C56.8337 25.3922 57.5165 28.6604 57.5165 32.0841C57.5165 35.5078 56.8337 38.776 55.5972 41.7574C54.3129 44.8546 52.4311 47.6417 50.099 49.9717C47.7669 52.3012 44.976 54.1809 41.8753 55.4637C38.8905 56.6988 35.6186 57.3809 32.191 57.3809C28.7634 57.3809 25.4938 56.6988 22.5067 55.4637C19.406 54.1809 16.6157 52.3012 14.283 49.9717C11.9509 47.6423 10.0691 44.8546 8.78482 41.7574C7.54828 38.776 6.86548 35.5078 6.86548 32.0841C6.86548 28.6604 7.54828 25.3945 8.78482 22.4109C10.0691 19.3136 11.9509 16.5265 14.283 14.1965C16.6151 11.867 19.406 9.98735 22.5067 8.70451C25.4915 7.46938 28.7634 6.78735 32.191 6.78735Z" fill="white"/>
<path d="M18.4339 14.6615L19.1116 16.385L20.9655 16.4958L19.5323 17.673L19.9985 19.4669L18.4339 18.468L16.8727 19.4669L17.3383 17.673L15.9056 16.4958L17.759 16.385L18.4339 14.6615Z" fill="#263D92"/>
<path d="M25.3256 14.6615L26.0027 16.385L27.8566 16.4958L26.4211 17.673L26.8896 19.4669L25.3256 18.468L23.761 19.4669L24.2294 17.673L22.7968 16.4958L24.6479 16.385L25.3256 14.6615Z" fill="#263D92"/>
<path d="M32.2167 14.6615L32.8943 16.385L34.7455 16.4958L33.3122 17.673L33.7807 19.4669L32.2167 18.468L30.6527 19.4669L31.1211 17.673L29.6879 16.4958L31.539 16.385L32.2167 14.6615Z" fill="#263D92"/>
<path d="M39.1077 14.6615L39.7853 16.385L41.6365 16.4958L40.2032 17.673L40.6717 19.4669L39.1077 18.468L37.5436 19.4669L38.0121 17.673L36.5789 16.4958L38.43 16.385L39.1077 14.6615Z" fill="#263D92"/>
<path d="M45.9988 14.6615L46.6765 16.385L48.5276 16.4958L47.0944 17.673L47.5606 19.4669L45.9988 18.468L44.4348 19.4669L44.9033 17.673L43.4678 16.4958L45.3212 16.385L45.9988 14.6615Z" fill="#263D92"/>
<path d="M19.2577 42.5676L30.5594 55.471L53.973 21.5652L30.5594 47.36L19.2577 42.5676Z" fill="#263D92"/>
<path d="M14.515 39.7448V27.0975H12.3842V25.052L12.5229 25.0367C12.8077 25.0066 13.0869 24.9362 13.3592 24.8277C13.6315 24.7193 13.9004 24.571 14.1625 24.3848C14.4246 24.2013 14.6509 23.9946 14.8402 23.7709C15.0267 23.5494 15.1802 23.3081 15.2933 23.0491L15.3337 22.956H17.3462V39.8975H14.5127V39.7414L14.515 39.7436V39.7448ZM27.499 35.986C27.499 36.5573 27.3983 37.0877 27.1942 37.576C26.9901 38.0638 26.6854 38.5068 26.28 38.9043C25.877 39.3018 25.4312 39.6039 24.9451 39.8027C24.4591 40.0037 23.9326 40.1048 23.3686 40.1048C22.8047 40.1048 22.2606 40.0043 21.7694 39.8004C21.2782 39.5994 20.8347 39.2973 20.4345 38.8947C20.0314 38.4949 19.7318 38.0491 19.5305 37.5635C19.3293 37.078 19.2281 36.5522 19.2281 35.986V26.8812C19.2281 26.3076 19.3287 25.7766 19.5328 25.2888C19.7369 24.801 20.0388 24.3552 20.4447 23.9555C20.8478 23.5557 21.2935 23.2558 21.7819 23.0548C22.2702 22.8538 22.7995 22.7527 23.3686 22.7527C23.9377 22.7527 24.4744 22.8532 24.9628 23.0571C25.4511 23.2581 25.8946 23.5625 26.2977 23.9651C26.6956 24.3677 26.9981 24.8152 27.1971 25.3008C27.3983 25.7886 27.4995 26.3144 27.4995 26.8806V35.9854L27.499 35.986ZM24.5898 26.8306C24.5898 26.6546 24.5568 26.491 24.4943 26.34C24.4312 26.1889 24.3357 26.0509 24.2072 25.9226C24.0787 25.7942 23.94 25.7011 23.7893 25.6381C23.6381 25.575 23.4693 25.5449 23.2879 25.5449C23.1065 25.5449 22.9451 25.575 22.7967 25.6381C22.6455 25.7011 22.5073 25.7942 22.3811 25.9226C22.2549 26.0509 22.1622 26.1895 22.0991 26.3377C22.036 26.4888 22.0059 26.6523 22.0059 26.8284V35.9508C22.0059 36.1297 22.036 36.2932 22.0991 36.4437C22.1622 36.5947 22.2555 36.7327 22.3811 36.8588C22.5067 36.9849 22.6483 37.0803 22.7967 37.1433C22.9479 37.2064 23.1117 37.2364 23.2879 37.2364C23.4641 37.2364 23.6381 37.2064 23.7893 37.1433C23.9406 37.0803 24.0816 36.9871 24.2072 36.8588C24.3357 36.7305 24.4312 36.5919 24.4943 36.4414C24.5574 36.2904 24.5898 36.1268 24.5898 35.9508V26.8306ZM37.609 35.986C37.609 36.5573 37.5084 37.0877 37.3043 37.576C37.1002 38.0638 36.7955 38.5068 36.3901 38.9043C35.987 39.3018 35.5413 39.6039 35.0552 39.8027C34.5691 40.0037 34.0427 40.1048 33.4787 40.1048C32.9147 40.1048 32.3707 40.0043 31.8794 39.8004C31.3882 39.5994 30.9448 39.2973 30.5445 38.8947C30.1443 38.4949 29.8419 38.0491 29.6406 37.5635C29.4393 37.078 29.3381 36.5522 29.3381 35.986V26.8812C29.3381 26.3076 29.4388 25.7766 29.6429 25.2888C29.847 24.801 30.1489 24.3552 30.5548 23.9555C30.9579 23.5557 31.4036 23.2558 31.892 23.0548C32.3803 22.8538 32.9096 22.7527 33.4787 22.7527C34.0478 22.7527 34.5845 22.8532 35.0729 23.0571C35.5612 23.2581 36.0047 23.5625 36.4055 23.9651C36.8034 24.3677 37.1059 24.8152 37.3049 25.3008C37.5061 25.7886 37.6073 26.3144 37.6073 26.8806V35.9854H37.6096L37.609 35.986ZM34.6999 26.8306C34.6999 26.6546 34.6669 26.491 34.6044 26.34C34.5413 26.1889 34.4458 26.0509 34.3173 25.9226C34.1888 25.7942 34.0501 25.7011 33.8994 25.6381C33.7482 25.575 33.5793 25.5449 33.398 25.5449C33.2166 25.5449 33.0552 25.575 32.9068 25.6381C32.7555 25.7011 32.6174 25.7942 32.4889 25.9226C32.3627 26.0509 32.27 26.1895 32.2069 26.3377C32.1438 26.4888 32.1137 26.6523 32.1137 26.8284V35.9508C32.1137 36.1297 32.1438 36.2932 32.2069 36.4437C32.27 36.5947 32.3633 36.7327 32.4889 36.8588C32.6151 36.9849 32.7561 37.0803 32.9068 37.1433C33.058 37.2064 33.2217 37.2364 33.398 37.2364C33.5742 37.2364 33.7482 37.2064 33.8994 37.1433C34.0506 37.0803 34.1916 36.9871 34.3173 36.8588C34.4458 36.7305 34.5413 36.5919 34.6044 36.4414C34.6675 36.2904 34.6999 36.1268 34.6999 35.9508V26.8306ZM44.6639 29.749C44.6639 30.0511 44.6087 30.335 44.4979 30.5968C44.387 30.8586 44.221 31.0977 44.0015 31.314C43.7827 31.5304 43.5405 31.6917 43.2761 31.8018C43.0117 31.9103 42.7297 31.9654 42.425 31.9654C41.8031 31.9654 41.2738 31.749 40.8383 31.314C40.6217 31.0977 40.4579 30.8586 40.3499 30.5968C40.2413 30.335 40.1862 30.0511 40.1862 29.749V24.9992C40.1862 24.378 40.4028 23.847 40.8383 23.4092C41.0549 23.1905 41.2965 23.027 41.5609 22.9185C41.8252 22.8078 42.1152 22.755 42.4222 22.755C42.7292 22.755 43.014 22.81 43.2784 22.9208C43.5427 23.0315 43.7844 23.1973 44.001 23.4188C44.2199 23.6403 44.3836 23.8845 44.4944 24.1457C44.6053 24.4098 44.6605 24.6943 44.6605 24.9986V29.7484H44.6627L44.6639 29.749ZM41.7849 29.7262C41.7849 29.8143 41.8002 29.8921 41.8275 29.9625C41.8554 30.0329 41.9003 30.0982 41.9583 30.1561C42.0162 30.2141 42.0816 30.2566 42.1521 30.2867C42.2226 30.3146 42.3034 30.3293 42.3915 30.3293C42.4745 30.3293 42.5529 30.314 42.6206 30.2867C42.6888 30.2589 42.7542 30.2163 42.8122 30.1584C42.8702 30.0982 42.9157 30.0323 42.9429 29.9619C42.9731 29.8915 42.9856 29.8109 42.9856 29.7257V24.9708C42.9856 24.8851 42.9702 24.805 42.9429 24.7346C42.9151 24.6642 42.8702 24.5989 42.8122 24.5409C42.7542 24.483 42.6888 24.4376 42.6206 24.4103C42.5524 24.3825 42.4745 24.3677 42.3915 24.3677C42.3034 24.3677 42.2226 24.3831 42.1521 24.4103C42.0816 24.4382 42.0185 24.4807 41.9583 24.5409C41.9003 24.5989 41.8548 24.6642 41.8275 24.7346C41.7974 24.805 41.7849 24.8856 41.7849 24.9708V29.7257V29.7262ZM49.8221 30.9086C50.1291 30.9086 50.4168 30.9637 50.6811 31.0744C50.9455 31.1851 51.1849 31.3509 51.4015 31.5701C51.6158 31.7888 51.7767 32.0307 51.8853 32.2948C51.9933 32.5588 52.0467 32.8433 52.0467 33.15V37.8872C52.0467 38.1967 51.9916 38.4835 51.883 38.7453C51.7744 39.0094 51.6084 39.2462 51.3895 39.4597C51.1706 39.6732 50.9313 39.8322 50.6692 39.9401C50.4071 40.048 50.1251 40.1014 49.8227 40.1014C49.2081 40.1014 48.6816 39.885 48.2433 39.45C48.0244 39.2337 47.8607 38.9946 47.7521 38.7356C47.6412 38.4739 47.5884 38.1922 47.5884 37.8878V33.1506C47.5884 32.8411 47.6435 32.5543 47.7521 32.2874C47.863 32.0205 48.0267 31.7791 48.2433 31.5628C48.4599 31.3464 48.7015 31.1806 48.9659 31.0721C49.2303 30.9614 49.5151 30.9086 49.8221 30.9086ZM50.3889 33.1273C50.3889 33.0415 50.3736 32.9615 50.3463 32.891C50.3184 32.8206 50.2735 32.7576 50.2155 32.6997C50.1575 32.6417 50.0921 32.5991 50.0239 32.5713C49.9512 32.5435 49.8727 32.5287 49.7874 32.5287C49.7021 32.5287 49.6214 32.5441 49.5509 32.5713C49.4804 32.5986 49.4173 32.6417 49.3593 32.6997C49.3013 32.7576 49.2587 32.8229 49.2308 32.891C49.203 32.9615 49.1882 33.0421 49.1882 33.1273V37.8696C49.1882 37.9554 49.2035 38.0355 49.2308 38.1059C49.2587 38.1763 49.3013 38.2393 49.3616 38.2972C49.4196 38.3552 49.485 38.3978 49.5532 38.4256C49.6237 38.4534 49.7044 38.4682 49.7897 38.4682C49.875 38.4682 49.9557 38.4528 50.0262 38.4256C50.0967 38.3978 50.1598 38.3552 50.2178 38.2972C50.2758 38.2393 50.3184 38.174 50.3463 38.1059C50.3741 38.0355 50.3889 37.9548 50.3889 37.8696V33.1273Z" fill="#263D92"/>
</g>
<defs>
<clipPath id="clip0_631_533">
<rect width="64" height="64" fill="white"/>
</clipPath>
</defs>
</svg>
