<svg width="36" height="36" viewBox="0 0 36 36" fill="none" xmlns="http://www.w3.org/2000/svg">
<g clip-path="url(#clip0_74_9)">
<path d="M34.9453 13.3594C35.5275 13.3594 36 12.8869 36 12.3047V8.08595C36 7.65985 35.7434 7.27524 35.3496 7.11212L18.4043 0.0808667C18.1455 -0.0267114 17.8545 -0.0267114 17.5957 0.0808667L0.650391 7.11212C0.256641 7.27524 0 7.65985 0 8.08595V12.3047C0 12.8869 0.4725 13.3594 1.05469 13.3594H2.88281V25.3125H2.53125C1.94906 25.3125 1.47656 25.785 1.47656 26.3672V29.5313H1.05469C0.4725 29.5313 0 30.0038 0 30.5859V34.9453C0 35.5275 0.4725 36 1.05469 36H34.9453C35.5275 36 36 35.5275 36 34.9453V30.5859C36 30.0038 35.5275 29.5313 34.9453 29.5313H34.5234V26.3672C34.5234 25.785 34.0509 25.3125 33.4688 25.3125H33.1172V13.3594H34.9453ZM33.8906 31.6406V33.8906H2.10938V31.6406H33.8906ZM8.50781 27.4219V29.5313H3.58594V27.4219H8.50781ZM4.99219 25.3125V13.3594H7.10156V25.3125H4.99219ZM9.5625 25.3125H9.21094V13.3594H26.7891V25.3125H26.4375C25.8553 25.3125 25.3828 25.785 25.3828 26.3672V29.5313H10.6172V26.3672C10.6172 25.785 10.1447 25.3125 9.5625 25.3125ZM32.4141 27.4219V29.5313H27.4922V27.4219H32.4141ZM28.8984 25.3125V13.3594H31.0078V25.3125H28.8984ZM2.10938 11.25V8.79048L18 2.19657L33.8906 8.79048V11.2507H2.10938V11.25Z" fill="#285DD9"/>
<path d="M24.3281 7.03125H11.6719C11.0897 7.03125 10.6172 7.50375 10.6172 8.08594C10.6172 8.66813 11.0897 9.14062 11.6719 9.14062H24.3281C24.9103 9.14062 25.3828 8.66813 25.3828 8.08594C25.3828 7.50375 24.9103 7.03125 24.3281 7.03125Z" fill="#285DD9"/>
</g>
<defs>
<clipPath id="clip0_74_9">
<rect width="36" height="36" fill="white"/>
</clipPath>
</defs>
</svg>
