<svg width="12" height="12" viewBox="0 0 12 12" fill="none" xmlns="http://www.w3.org/2000/svg">
<path d="M11.4628 12H7.56715C7.28798 12 7.05957 11.771 7.05957 11.491V9.0647C7.05957 8.44964 6.57737 7.96608 5.96405 7.96608C5.35072 7.96608 4.86852 8.44964 4.86852 9.0647V11.491C4.86852 11.771 4.64011 12 4.36094 12H0.507578C0.22841 12 0 11.771 0 11.491V4.95017C0 4.49206 0.22841 4.05516 0.587945 3.80065L5.70603 0.0975763C5.88368 -0.0296771 6.11209 -0.0296771 6.29397 0.0975763L11.4121 3.80065C11.7674 4.05516 12 4.49206 12 4.95017V11.5165C11.9746 11.771 11.7462 12 11.467 12H11.4628ZM8.07473 11.0032H10.9806V4.95017C10.9806 4.82292 10.9045 4.69567 10.803 4.61932L5.9852 1.1156L1.17166 4.59386C1.07014 4.67022 0.994008 4.79747 0.994008 4.92472V10.9777H3.89989V9.06046C3.89989 7.91094 4.84314 6.96502 5.98943 6.96502C7.13571 6.96502 8.07896 7.91094 8.07896 9.06046V11.0032H8.07473Z" fill="#161F26"/>
</svg>
