<svg width="40" height="39" viewBox="0 0 40 39" fill="none" xmlns="http://www.w3.org/2000/svg">
<path d="M35.3833 25.0294C33.4833 25.0294 31.8833 26.3094 31.3933 28.0494H27.3833V23.6294H31.4733C35.9133 23.6294 39.5333 20.0194 39.5333 15.5694C39.5333 12.0094 37.1733 8.87941 33.8133 7.85941C32.8033 3.79941 29.1433 0.889409 24.8933 0.889409C23.2433 0.889409 21.6733 1.30941 20.2833 2.11941C18.8133 0.769409 16.8833 0.0194092 14.8533 0.0194092C10.4933 0.0194092 6.94326 3.48941 6.79326 7.80941C3.35326 8.76941 0.903259 11.9294 0.903259 15.5694C0.903259 20.0094 4.51326 23.6294 8.96326 23.6294H13.0533V28.0494H9.04326C8.55326 26.3094 6.94326 25.0294 5.05326 25.0294C2.76326 25.0294 0.903259 26.8894 0.903259 29.1794C0.903259 31.4694 2.76326 33.3294 5.05326 33.3294C6.95326 33.3294 8.55326 32.0494 9.04326 30.3094H14.1833C14.8133 30.3094 15.3133 29.7994 15.3133 29.1794V23.6294H19.0833V30.4694C17.3433 30.9594 16.0633 32.5694 16.0633 34.4594C16.0633 36.7494 17.9233 38.6094 20.2133 38.6094C22.5033 38.6094 24.3633 36.7494 24.3633 34.4594C24.3633 32.5594 23.0833 30.9594 21.3433 30.4694V23.6294H25.1133V29.1794C25.1133 29.8094 25.6233 30.3094 26.2433 30.3094H31.3833C31.8733 32.0494 33.4833 33.3294 35.3733 33.3294C37.6633 33.3294 39.5233 31.4694 39.5233 29.1794C39.5233 26.8894 37.6633 25.0294 35.3733 25.0294H35.3833ZM5.05326 31.0694C4.01326 31.0694 3.16326 30.2194 3.16326 29.1794C3.16326 28.1394 4.01326 27.2894 5.05326 27.2894C6.09326 27.2894 6.94326 28.1394 6.94326 29.1794C6.94326 30.2194 6.09326 31.0694 5.05326 31.0694ZM22.1033 34.4694C22.1033 35.5094 21.2533 36.3594 20.2133 36.3594C19.1733 36.3594 18.3233 35.5094 18.3233 34.4694C18.3233 33.4294 19.1733 32.5794 20.2133 32.5794C21.2533 32.5794 22.1033 33.4294 22.1033 34.4694ZM8.95326 21.3694C5.76326 21.3694 3.16326 18.7694 3.16326 15.5794C3.16326 12.7194 5.29326 10.2594 8.11326 9.84941C8.71326 9.75941 9.13326 9.21941 9.07326 8.62941C9.05326 8.44941 9.05326 8.26941 9.05326 8.08941C9.05326 4.89941 11.6533 2.29941 14.8433 2.29941C16.5433 2.29941 18.1533 3.03941 19.2533 4.32941C19.6433 4.77941 20.3133 4.85941 20.7933 4.50941C21.9833 3.62941 23.4033 3.16941 24.8933 3.16941C28.3333 3.16941 31.2033 5.69941 31.7333 8.97941C31.8133 9.43941 32.1633 9.80941 32.6233 9.90941C35.3133 10.4494 37.2633 12.8394 37.2633 15.5894C37.2633 18.7794 34.6633 21.3794 31.4733 21.3794H8.96326L8.95326 21.3694ZM35.3833 31.0694C34.3433 31.0694 33.4933 30.2194 33.4933 29.1794C33.4933 28.1394 34.3433 27.2894 35.3833 27.2894C36.4233 27.2894 37.2733 28.1394 37.2733 29.1794C37.2733 30.2194 36.4233 31.0694 35.3833 31.0694Z" fill="#285DD9"/>
</svg>
