<svg width="25" height="40" viewBox="0 0 25 40" fill="none" xmlns="http://www.w3.org/2000/svg">
<g clip-path="url(#clip0_74_23)">
<path d="M1.79288 12.5852H6.13383V17.4389C2.57043 19.5406 0.175415 23.4421 0.175415 27.893C0.175415 34.5674 5.56003 40 12.1754 40C18.7908 40 24.1754 34.5674 24.1754 27.893C24.1754 23.4379 21.7804 19.5406 18.217 17.4389V12.5852H22.5538C23.0278 12.5852 23.4519 12.2958 23.6307 11.8553C23.8095 11.4148 23.7056 10.9072 23.3688 10.5758L12.9862 0.335606C12.7617 0.113267 12.4665 0 12.1754 0C11.8844 0 11.5891 0.113267 11.3646 0.335606L0.982068 10.5716C0.64527 10.903 0.541319 11.4106 0.720114 11.8511C0.898908 12.2916 1.32302 12.581 1.79704 12.581L1.79288 12.5852ZM21.8469 27.8972C21.8469 33.2795 17.506 37.6591 12.1713 37.6591C6.83654 37.6591 2.49558 33.2795 2.49558 27.8972C2.49558 22.5149 6.83654 18.1353 12.1713 18.1353C17.506 18.1353 21.8469 22.5149 21.8469 27.8972ZM12.1754 2.8107L19.7056 10.236H17.0569C16.4166 10.236 15.8968 10.7604 15.8968 11.4064V16.3776C14.7243 15.9916 13.4769 15.7819 12.1796 15.7819C10.8823 15.7819 9.63072 15.9916 8.46232 16.3776V11.4064C8.46232 10.7604 7.94257 10.236 7.30223 10.236H4.65359L12.1754 2.8107Z" fill="#285DD9"/>
<path d="M11.9758 26.4206C10.7742 25.9717 10.5746 25.678 10.5787 25.183C10.5871 24.2139 11.5476 24.1133 11.955 24.1175C12.558 24.1175 13.5143 24.4069 13.5143 25.162C13.5143 25.8081 14.034 26.3325 14.6744 26.3325C15.3147 26.3325 15.8345 25.8081 15.8345 25.162C15.8345 23.4463 14.6079 22.3429 13.1733 21.9402V21.0844C13.1733 20.4384 12.6536 19.914 12.0133 19.914C11.3729 19.914 10.8532 20.4384 10.8532 21.0844V21.9067C10.3501 22.0367 9.89268 22.2507 9.50598 22.5485C8.70765 23.1652 8.26274 24.0923 8.25442 25.1578C8.23363 27.57 10.3625 28.3293 11.3896 28.6943" fill="#285DD9"/>
<path d="M11.3896 28.6985C13.0029 29.2564 13.6058 29.5962 13.6016 30.2171C13.5933 31.1778 12.6536 31.2826 12.2336 31.2826C12.2336 31.2826 12.2253 31.2826 12.2212 31.2826C11.6182 31.2826 10.6619 30.9932 10.6619 30.2381C10.6619 29.592 10.1422 29.0676 9.50182 29.0676C8.86149 29.0676 8.34174 29.592 8.34174 30.2381C8.34174 31.9538 9.56835 33.0572 11.0029 33.4599V34.3534C11.0029 34.9995 11.5226 35.5239 12.1629 35.5239C12.8033 35.5239 13.323 34.9995 13.323 34.3534V33.4976C13.8261 33.3676 14.2835 33.1536 14.6702 32.8558C15.4686 32.2391 15.9135 31.312 15.9218 30.2465C15.9426 27.8007 13.3854 26.9156 11.9717 26.4247" fill="#285DD9"/>
</g>
<defs>
<clipPath id="clip0_74_23">
<rect width="24" height="40" fill="white" transform="translate(0.175415)"/>
</clipPath>
</defs>
</svg>
