<svg width="21" height="22" viewBox="0 0 21 22" fill="none" xmlns="http://www.w3.org/2000/svg">
<path d="M1.3806 7.56414L1.38061 7.56414C1.81412 7.7855 2.34486 7.61362 2.56624 7.18013C3.95666 4.45758 6.74823 2.6625 9.89698 2.6625C12.5737 2.6625 15.0074 3.96247 16.5272 6.03763L15.8706 5.56866L15.8706 5.56866C15.4745 5.28583 14.9241 5.37756 14.6413 5.7736L14.7185 5.82876L14.6413 5.77361C14.3584 6.16968 14.4502 6.72002 14.8462 7.0029L14.9027 6.92382L14.8462 7.0029L18.2241 9.41544L18.2242 9.41549C18.783 9.81383 19.5529 9.44884 19.6139 8.77833L19.9933 4.61701C20.0375 4.13229 19.6804 3.70355 19.1957 3.65936C18.711 3.61516 18.2823 3.9723 18.2381 4.45698L18.1606 5.30734C16.3656 2.65597 13.3618 0.9 9.89698 0.9C6.058 0.9 2.67547 3.09113 0.996594 6.3785C0.775223 6.81195 0.947158 7.34277 1.3806 7.56414Z" fill="#1A2128" stroke="#1A2128" stroke-width="0.2"/>
<path d="M2.65888 17.543L2.7364 16.6926C4.53134 19.344 7.53514 21.1 11 21.1C14.8389 21.1 18.2215 18.9089 19.9003 15.6215C20.1217 15.188 19.9498 14.6572 19.5163 14.4359L19.4711 14.5243L19.5163 14.4359C19.0829 14.2145 18.5521 14.3864 18.3307 14.8199C16.9403 17.5424 14.1487 19.3375 11 19.3375C8.32321 19.3375 5.88958 18.0375 4.36974 15.9624L5.02637 16.4313L5.02638 16.4313C5.42245 16.7142 5.97278 16.6224 6.25567 16.2264L6.25567 16.2264C6.53851 15.8303 6.44677 15.28 6.05074 14.9971L6.05073 14.9971L2.67282 12.5846C2.67281 12.5846 2.67281 12.5846 2.6728 12.5846C2.12113 12.1904 1.34475 12.5437 1.28303 13.2217C1.28303 13.2217 1.28303 13.2217 1.28303 13.2217L0.903691 17.383C0.859496 17.8677 1.21662 18.2964 1.70127 18.3406L1.7013 18.3406C2.18657 18.3847 2.61473 18.0272 2.65888 17.543Z" fill="#1A2128" stroke="#1A2128" stroke-width="0.2"/>
</svg>
