<svg width="12" height="14" viewBox="0 0 12 14" fill="none" xmlns="http://www.w3.org/2000/svg">
<g clip-path="url(#clip0_72_1682)">
<path d="M10.668 0.766059H9.004C8.564 0.296061 7.916 0 7.196 0H4.8C4.08 0 3.432 0.296061 2.992 0.766059H1.332C0.596 0.766059 0 1.32117 0 1.99841V12.7676C0 13.4486 0.596 14 1.332 14H10.668C11.4 14 12 13.4486 12 12.7676V1.99841C12 1.31747 11.404 0.766059 10.668 0.766059ZM4.8 0.82157H7.196C7.88 0.82157 8.448 1.24716 8.636 1.80967H3.364C3.552 1.24716 4.12 0.82157 4.804 0.82157H4.8ZM11.112 12.7676C11.112 12.9934 10.912 13.1784 10.668 13.1784H1.332C1.088 13.1784 0.888 12.9934 0.888 12.7676V1.99841C0.888 1.77267 1.088 1.58763 1.332 1.58763H2.508C2.444 1.78747 2.408 1.99841 2.408 2.21676C2.408 2.4351 2.608 2.62754 2.852 2.62754H9.148C9.392 2.62754 9.592 2.44251 9.592 2.21676C9.592 1.99101 9.556 1.78747 9.492 1.58763H10.668C10.912 1.58763 11.112 1.77267 11.112 1.99841V12.7676Z" fill="#161F26"/>
<path d="M3.81595 8.16761L3.16395 8.77083L3.00395 8.6228C2.83195 8.46367 2.55195 8.46367 2.37595 8.6228C2.20395 8.78193 2.20395 9.04469 2.37595 9.20382L2.84795 9.64051C3.01995 9.79964 3.29995 9.79964 3.47595 9.64051L4.43995 8.74493C4.61195 8.58579 4.61195 8.32304 4.43995 8.16391C4.26795 8.00477 3.98795 8.00477 3.81195 8.16391L3.81595 8.16761Z" fill="#161F26"/>
<path d="M9.28001 8.49329H5.70401C5.46001 8.49329 5.26001 8.67832 5.26001 8.90407C5.26001 9.12982 5.46001 9.31486 5.70401 9.31486H9.28001C9.52401 9.31486 9.72401 9.12982 9.72401 8.90407C9.72401 8.67832 9.52401 8.49329 9.28001 8.49329Z" fill="#161F26"/>
<path d="M3.81595 10.5213L3.16395 11.1245L3.00395 10.9765C2.83195 10.8174 2.55195 10.8174 2.37595 10.9765C2.20395 11.1356 2.20395 11.3984 2.37595 11.5575L2.84795 11.9942C3.01995 12.1533 3.29995 12.1533 3.47595 11.9942L4.43995 11.0986C4.61195 10.9395 4.61195 10.6767 4.43995 10.5176C4.26795 10.3585 3.98795 10.3585 3.81195 10.5176L3.81595 10.5213Z" fill="#161F26"/>
<path d="M9.28001 10.8506H5.70401C5.46001 10.8506 5.26001 11.0357 5.26001 11.2614C5.26001 11.4872 5.46001 11.6722 5.70401 11.6722H9.28001C9.52401 11.6722 9.72401 11.4872 9.72401 11.2614C9.72401 11.0357 9.52401 10.8506 9.28001 10.8506Z" fill="#161F26"/>
<path d="M6.84399 6.59108L8.21599 5.32172V5.36983C8.21599 5.59558 8.41599 5.78061 8.65999 5.78061C8.90399 5.78061 9.10399 5.59558 9.10399 5.36983C9.10399 4.20779 9.10399 4.31511 9.09999 4.2707C9.06799 4.07086 8.88399 3.91913 8.65999 3.91913H7.53599C7.29199 3.91913 7.09199 4.10417 7.09199 4.32991C7.09199 4.55566 7.29199 4.7407 7.53599 4.7407H7.58799L6.53199 5.7214L5.19199 4.47794C5.01999 4.31881 4.73999 4.31881 4.56399 4.47794L2.96799 5.95825C2.79599 6.11738 2.79599 6.38014 2.96799 6.53927C3.13999 6.6984 3.41999 6.6984 3.59599 6.53927L4.87999 5.35132L6.21999 6.59478C6.39199 6.75392 6.67199 6.75392 6.84799 6.59478L6.84399 6.59108Z" fill="#161F26"/>
</g>
<defs>
<clipPath id="clip0_72_1682">
<rect width="12" height="14" fill="white"/>
</clipPath>
</defs>
</svg>
