<svg width="13" height="15" viewBox="0 0 13 15" fill="none" xmlns="http://www.w3.org/2000/svg">
<g clip-path="url(#clip0_72_1706)">
<path d="M12.6663 9.28654C12.8743 9.0536 13 8.74595 13 8.40754C13 7.68237 12.415 7.08906 11.7 7.08906H9.178C9.42933 6.31994 9.53333 5.30031 9.53333 4.86081V4.42131C9.53333 3.45003 8.75767 2.66333 7.8 2.66333H7.36667C7.16733 2.66333 6.994 2.79957 6.94633 2.99735L6.71233 3.95545C6.383 5.29591 5.33 6.77701 4.24667 7.04511C4.056 6.55727 3.588 6.21006 3.03767 6.21006H0.433333C0.195 6.21006 0 6.40784 0 6.64956V14.5605C0 14.8022 0.195 15 0.433333 15H3.03333C3.549 15 3.99533 14.6923 4.20767 14.2484L5.69833 14.7539C6.18367 14.9165 6.69067 15 7.20633 15H10.8377C11.5527 15 12.1377 14.4067 12.1377 13.6815C12.1377 13.5101 12.1073 13.3475 12.0467 13.1937C12.597 13.0398 13.0043 12.53 13.0043 11.9235C13.0043 11.5851 12.8787 11.2775 12.6707 11.0445C12.8787 10.8116 13.0043 10.5039 13.0043 10.1655C13.0043 9.82712 12.8787 9.51947 12.6707 9.28654H12.6663ZM3.46667 13.6815C3.46667 13.9232 3.27167 14.121 3.03333 14.121H0.866667V7.08906H3.03333C3.27167 7.08906 3.46667 7.28683 3.46667 7.52855V13.6815ZM10.8333 9.72603H11.7C11.9383 9.72603 12.1333 9.9238 12.1333 10.1655C12.1333 10.4073 11.9383 10.605 11.7 10.605H10.8333C10.595 10.605 10.4 10.8028 10.4 11.0445C10.4 11.2862 10.595 11.484 10.8333 11.484H11.7C11.9383 11.484 12.1333 11.6818 12.1333 11.9235C12.1333 12.1652 11.9383 12.363 11.7 12.363H10.8333C10.595 12.363 10.4 12.5608 10.4 12.8025C10.4 13.0442 10.595 13.242 10.8333 13.242C11.0717 13.242 11.2667 13.4398 11.2667 13.6815C11.2667 13.9232 11.0717 14.121 10.8333 14.121H7.202C6.78167 14.121 6.36567 14.0507 5.967 13.9188L4.329 13.3651V7.92849C5.00933 7.79664 5.67233 7.36154 6.27467 6.64516C6.85967 5.94637 7.33633 5.02342 7.54867 4.1708L7.70467 3.54672H7.8C8.27667 3.54672 8.66667 3.94226 8.66667 4.42571V4.86521C8.66667 5.45413 8.48467 6.58803 8.25067 7.09345H7.36667C7.12833 7.09345 6.93333 7.29122 6.93333 7.53295C6.93333 7.77467 7.12833 7.97244 7.36667 7.97244H11.7C11.9383 7.97244 12.1333 8.17022 12.1333 8.41194C12.1333 8.65366 11.9383 8.85143 11.7 8.85143H10.8333C10.595 8.85143 10.4 9.04921 10.4 9.29093C10.4 9.53265 10.595 9.73043 10.8333 9.73043V9.72603Z" fill="#161F26"/>
<path d="M2.16661 13.242C2.40593 13.242 2.59994 13.0453 2.59994 12.8025C2.59994 12.5598 2.40593 12.363 2.16661 12.363C1.92729 12.363 1.73328 12.5598 1.73328 12.8025C1.73328 13.0453 1.92729 13.242 2.16661 13.242Z" fill="#161F26"/>
<path d="M8.23338 0C7.99505 0 7.80005 0.197773 7.80005 0.439496V1.34925C7.80005 1.59098 7.99505 1.78875 8.23338 1.78875C8.47172 1.78875 8.66672 1.59098 8.66672 1.34925V0.439496C8.66672 0.197773 8.47172 0 8.23338 0Z" fill="#161F26"/>
<path d="M6.39599 1.93818L5.78499 1.31849C5.61599 1.14709 5.34299 1.14709 5.17399 1.31849C5.00499 1.4899 5.00499 1.76678 5.17399 1.93818L5.78499 2.55787C5.95399 2.72928 6.22699 2.72928 6.39599 2.55787C6.56499 2.38647 6.56499 2.10959 6.39599 1.93818Z" fill="#161F26"/>
<path d="M11.297 1.31849C11.128 1.14709 10.855 1.14709 10.686 1.31849L10.075 1.93818C9.90599 2.10959 9.90599 2.38647 10.075 2.55787C10.244 2.72928 10.517 2.72928 10.686 2.55787L11.297 1.93818C11.466 1.76678 11.466 1.4899 11.297 1.31849Z" fill="#161F26"/>
</g>
<defs>
<clipPath id="clip0_72_1706">
<rect width="13" height="15" fill="white"/>
</clipPath>
</defs>
</svg>
