<svg width="15" height="15" viewBox="0 0 15 15" fill="none" xmlns="http://www.w3.org/2000/svg">
<g clip-path="url(#clip0_72_1689)">
<path d="M6.42623 0C4.65791 0 3.21313 1.44478 3.21313 3.21309C3.21313 4.98141 4.65791 6.42618 6.42623 6.42618C8.19454 6.42618 9.63932 4.98141 9.63932 3.21309C9.63932 1.44478 8.19454 0 6.42623 0ZM6.42623 1.07103C7.6144 1.07103 8.56829 2.02492 8.56829 3.21309C8.56829 4.40127 7.6144 5.35515 6.42623 5.35515C5.23805 5.35515 4.28416 4.40127 4.28416 3.21309C4.28416 2.02492 5.23805 1.07103 6.42623 1.07103Z" fill="#161F26"/>
<path d="M4.81964 7.49719C2.1588 7.49719 0 9.66157 0 12.3224V13.3934C0 13.6891 0.239866 13.929 0.535515 13.929H6.34808C6.64373 13.929 6.88918 13.6947 6.88918 13.399C6.88918 13.1034 6.65489 12.8579 6.35924 12.8579C6.35924 12.8579 6.34808 12.8579 6.34251 12.8579H1.07103V12.3224C1.07103 10.2361 2.73336 8.5738 4.81964 8.5738H6.97285C7.2685 8.5738 7.51395 8.33951 7.51395 8.04386C7.51395 7.74822 7.27966 7.50277 6.98401 7.50277C6.98401 7.50277 6.97285 7.50277 6.96727 7.50277H4.81406L4.81964 7.49719Z" fill="#161F26"/>
<path d="M11.2402 7.49719C10.939 7.49719 10.7047 7.74264 10.7103 8.03829V8.61843C10.37 8.69094 10.0521 8.82482 9.77315 9.01449L9.36036 8.60169C9.23206 8.47339 9.0926 8.42319 8.95314 8.42877C8.54593 8.45108 8.21123 8.98102 8.60171 9.36034L9.0145 9.77313C8.83042 10.052 8.69096 10.37 8.62402 10.7103H8.04388C7.31871 10.6991 7.31871 11.7925 8.04388 11.7813H8.6296C8.70212 12.1216 8.836 12.434 9.02008 12.7129L8.60171 13.1313C8.08293 13.6389 8.85273 14.4087 9.36036 13.8899L9.77315 13.4771C10.0521 13.6612 10.37 13.8007 10.7103 13.8732V14.4533C10.6991 15.1785 11.7925 15.1785 11.7813 14.4533V13.8732C12.1216 13.8062 12.4396 13.6668 12.7185 13.4827L13.1369 13.9011C13.3488 14.1186 13.6947 14.1186 13.9011 13.9011C14.1075 13.6891 14.1019 13.3488 13.8899 13.1424L13.4716 12.724C13.6556 12.4451 13.7951 12.1272 13.8676 11.7869H14.4533C14.7546 11.7869 15 11.547 14.9944 11.2458C14.9944 10.9446 14.749 10.7103 14.4533 10.7159H13.8732C13.8062 10.3756 13.6668 10.052 13.4771 9.77313L13.8899 9.36034C14.1075 9.14836 14.1075 8.80251 13.8899 8.59611C13.7839 8.49013 13.6445 8.43992 13.5106 8.4455C13.3767 8.4455 13.2373 8.50128 13.1369 8.60727L12.7241 9.02006C12.4451 8.83598 12.1272 8.69652 11.7869 8.62401V8.04386C11.7869 7.74264 11.547 7.49719 11.2458 7.50277L11.2402 7.49719ZM11.2458 9.63925C12.1383 9.63925 12.8524 10.3533 12.8524 11.2458C12.8524 12.1383 12.1383 12.8523 11.2458 12.8523C10.3533 12.8523 9.63927 12.1383 9.63927 11.2458C9.63927 10.3533 10.3533 9.63925 11.2458 9.63925Z" fill="#161F26"/>
</g>
<defs>
<clipPath id="clip0_72_1689">
<rect width="15" height="15" fill="white"/>
</clipPath>
</defs>
</svg>
