<svg width="24" height="24" viewBox="0 0 24 24" fill="none" xmlns="http://www.w3.org/2000/svg">
<path d="M4.40476 15.526L8.93476 20.056C9.83077 20.9494 11.0445 21.4511 12.3098 21.4511C13.5751 21.4511 14.7887 20.9494 15.6848 20.056L20.0748 15.666C20.9681 14.77 21.4698 13.5563 21.4698 12.291C21.4698 11.0257 20.9681 9.81204 20.0748 8.91602L15.5348 4.39602C15.0654 3.92532 14.5024 3.55839 13.8823 3.31896C13.2622 3.07952 12.5987 2.97291 11.9348 3.00602L6.93476 3.24602C4.93476 3.33602 3.34476 4.92602 3.24476 6.91602L3.00476 11.916C2.94476 13.266 3.45476 14.576 4.40476 15.526Z" stroke="black" stroke-width="1.5" stroke-linecap="round" stroke-linejoin="round"/>
<path d="M9.73486 12.226C10.3979 12.226 11.0338 11.9626 11.5026 11.4938C11.9715 11.0249 12.2349 10.3891 12.2349 9.72601C12.2349 9.06297 11.9715 8.42709 11.5026 7.95825C11.0338 7.48941 10.3979 7.22601 9.73486 7.22601C9.07182 7.22601 8.43594 7.48941 7.9671 7.95825C7.49826 8.42709 7.23486 9.06297 7.23486 9.72601C7.23486 10.3891 7.49826 11.0249 7.9671 11.4938C8.43594 11.9626 9.07182 12.226 9.73486 12.226Z" stroke="black" stroke-width="1.5" stroke-linecap="round"/>
<path d="M13.2349 17.226L17.2349 13.226" stroke="black" stroke-width="1.5" stroke-miterlimit="10" stroke-linecap="round" stroke-linejoin="round"/>
</svg>
